<svg width="129" height="19" viewBox="0 0 129 19" fill="none" xmlns="http://www.w3.org/2000/svg">
<g clip-path="url(#clip0_8986_36066)">
<path d="M4.28653 9.5118L2.14326 11.6543L0 9.5118L2.14326 7.36927L4.28653 9.5118ZM9.51517 4.28501L13.1893 7.98143L15.3326 5.83891L11.6585 2.1425L9.51517 0L7.37189 2.1425L3.67417 5.83891L5.81744 7.98143L9.51517 4.28501ZM16.887 7.36927L14.7438 9.5118L16.887 11.6543L19.0303 9.5118L16.887 7.36927ZM9.51517 14.715L5.84099 11.0422L3.67417 13.1847L7.34834 16.8575L9.49157 19L11.6349 16.8575L15.3326 13.1847L13.1893 11.0422L9.51517 14.715ZM9.51517 11.6543L11.6585 9.5118L9.51517 7.36927L7.37189 9.5118L9.51517 11.6543ZM32.1961 11.8661V11.8426C32.1961 10.4536 31.4424 9.74724 30.2412 9.27635C30.9949 8.85258 31.6073 8.19327 31.6073 7.01611V6.99256C31.6073 5.34449 30.2883 4.28501 28.1686 4.28501H23.3168V14.715H28.2864C30.6417 14.715 32.1961 13.7733 32.1961 11.8661ZM29.3227 7.41636C29.3227 8.19327 28.6868 8.52293 27.674 8.52293H25.5544V6.30979H27.8154C28.781 6.30979 29.3227 6.6865 29.3227 7.39281V7.41636ZM29.9115 11.5837C29.9115 12.3606 29.2991 12.7138 28.2864 12.7138H25.5544V10.43H28.2158C29.3934 10.43 29.9115 10.8538 29.9115 11.5601V11.5837ZM37.0008 14.715V4.28501H34.7162V14.715H37.0008ZM49.3423 14.715V4.28501H47.0812V10.7125L42.1823 4.28501H40.0626V14.715H42.3236V8.09915L47.3874 14.7385H49.3423V14.715ZM62.0605 14.715L57.5855 4.21437H55.4658L50.9909 14.715H53.3225L54.2882 12.3841H58.6925L59.6582 14.715H62.0605ZM57.8917 10.3594H55.1126L56.5022 6.96902L57.8917 10.3594ZM72.9888 14.715V4.28501H70.7278V10.7125L65.8289 4.28501H63.7092V14.715H65.9702V8.09915L71.0339 14.7385H72.9888V14.715ZM84.8592 13.0433L83.3993 11.5601C82.575 12.3135 81.8442 12.7844 80.6667 12.7844C78.8772 12.7844 77.6522 11.3011 77.6522 9.5118V9.4882C77.6522 7.69889 78.9244 6.23916 80.6667 6.23916C81.7034 6.23916 82.5277 6.6865 83.3285 7.41636L84.7884 5.72119C83.8233 4.75589 82.645 4.1202 80.6667 4.1202C77.4638 4.1202 75.2263 6.54523 75.2263 9.5118V9.53531C75.2263 12.5254 77.5108 14.9034 80.5723 14.9034C82.5749 14.9034 83.7761 14.197 84.8592 13.0433ZM94.6333 14.715V12.6667H88.9809V10.4771H93.9034V8.42872H88.9809V6.30979H94.5625V4.26146H86.6967V14.6914H94.6333V14.715Z" fill="#F0B90B"/>
<path d="M109.178 7.78242C109.178 5.65801 107.658 4.29126 105.253 4.29126H101.181V14.6904H102.996V11.3479H105.047C107.319 11.3479 109.178 10.1297 109.178 7.78242ZM107.334 7.82699C107.334 8.9412 106.478 9.69883 105.106 9.69883H102.996V5.95513H105.106C106.464 5.95513 107.334 6.59394 107.334 7.82699Z" fill="#1E2026"/>
<path d="M115.341 4.21692H113.659L109.114 14.6904H110.973L112.036 12.1798H116.92L117.967 14.6904H119.886L115.341 4.21692ZM116.256 10.5604H112.7L114.47 6.40075L116.256 10.5604Z" fill="#1E2026"/>
<path d="M124.898 10.5457L129 4.29126H126.919L123.998 8.89663L121.106 4.29126H118.966L123.068 10.5902V14.6904H124.898V10.5457Z" fill="#1E2026"/>
</g>
<defs>
<clipPath id="clip0_8986_36066">
<rect width="129" height="19" fill="white"/>
</clipPath>
</defs>
</svg>
