<svg width="104" height="41" viewBox="0 0 104 41" fill="none" xmlns="http://www.w3.org/2000/svg">
<path fill-rule="evenodd" clip-rule="evenodd" d="M104 21C104 32.0457 95.0457 41 84 41C72.9543 41 64 32.0457 64 21C64 9.9543 72.9543 1 84 1C95.0457 1 104 9.9543 104 21ZM79.1235 21L82.0496 10.0243H88.3914L86.1962 18.5612L89.1235 17.3418L88.3914 20.0243L85.4642 21L84.0011 26.3661H94.4895L93.5138 30.2679H76.6836L78.3914 23.6825L75.9526 24.6582L76.6836 21.9758L79.1235 21Z" fill="#A5A8A9"/>
<circle cx="53" cy="21" r="20" fill="#6481E7"/>
<path fill-rule="evenodd" clip-rule="evenodd" d="M53.2352 6.92773V27.1172L62.2065 21.8138L53.2352 6.92773Z" fill="#C1CCF5"/>
<path fill-rule="evenodd" clip-rule="evenodd" d="M44.2634 21.8138L53.2347 27.1172V6.92773L44.2634 21.8138Z" fill="white"/>
<path fill-rule="evenodd" clip-rule="evenodd" d="M53.2353 17.7362L44.2634 21.8135L53.2347 27.117L62.2066 21.8141L53.2353 17.7362Z" fill="#8299EC"/>
<path fill-rule="evenodd" clip-rule="evenodd" d="M53.2352 28.8158V36.1585L62.2124 23.5153L53.2352 28.8158Z" fill="#C1CCF5"/>
<path fill-rule="evenodd" clip-rule="evenodd" d="M53.2353 17.7362L44.2634 21.8135L53.2347 27.117L53.2353 17.7362Z" fill="#C1CCF5"/>
<path fill-rule="evenodd" clip-rule="evenodd" d="M44.2634 23.5153L53.2347 36.1579V28.8158L44.2634 23.5153Z" fill="white"/>
<path fill-rule="evenodd" clip-rule="evenodd" d="M20 39.8433C31.0457 39.8433 40 30.9241 40 19.9216C40 8.91923 31.0457 0 20 0C8.95431 0 0 8.91923 0 19.9216C0 30.9241 8.95431 39.8433 20 39.8433ZM28.8147 17.0804C29.2124 14.4286 27.1853 13.0037 24.4143 12.0521L25.3134 8.4586L23.1188 7.91304L22.2435 11.4118C21.667 11.2686 21.0743 11.1328 20.4841 10.9996L21.3657 7.47834L19.1723 6.93278L18.272 10.525C17.7943 10.4166 17.3254 10.3095 16.8702 10.1962L16.8727 10.185L13.8453 9.43264L13.2614 11.7681C13.2614 11.7681 14.8895 12.1393 14.8557 12.1629C15.7448 12.3846 15.9061 12.9701 15.8786 13.4347L14.8545 17.5264C14.9157 17.5413 14.9945 17.5625 15.0833 17.5998C15.0095 17.5799 14.932 17.5612 14.8507 17.5413L13.4152 23.2759C13.3064 23.5437 13.03 23.9473 12.4086 23.7941C12.4311 23.8252 10.813 23.398 10.813 23.398L9.72255 25.9016L12.5786 26.6103C13.1101 26.7423 13.6315 26.8818 14.143 27.0126L13.2351 30.6459L15.4272 31.1915L16.3275 27.5968C16.9265 27.7575 17.508 27.9082 18.0769 28.0489L17.1803 31.6262L19.3749 32.1718L20.284 28.5459C24.0279 29.2509 26.8427 28.9669 28.0269 25.5939C28.9823 22.8773 27.9794 21.3116 26.0099 20.2903C27.4454 19.9614 28.5258 19.0223 28.8147 17.0804ZM23.804 24.0872C23.125 26.8025 18.5358 25.334 17.0477 24.9653L18.2531 20.1524C19.7412 20.5224 24.513 21.2548 23.804 24.0872ZM24.4835 17.0414C23.8645 19.5102 20.0443 18.2559 18.8051 17.9495L19.898 13.5825C21.1373 13.8914 25.1275 14.4656 24.4835 17.0414Z" fill="#F7931A"/>
</svg>
