<svg width="24" height="24" viewBox="0 0 24 24" fill="none" xmlns="http://www.w3.org/2000/svg">
<g clip-path="url(#clip0_2777_9342)">
<path d="M23.4998 19.95H16.1126C15.9714 19.95 15.8569 19.8355 15.8569 19.6943V18.5115C15.8569 18.3703 15.9714 18.2559 16.1126 18.2559H23.4998C23.641 18.2559 23.7555 18.3703 23.7555 18.5115V19.6943C23.7555 19.8355 23.641 19.95 23.4998 19.95Z" fill="url(#paint0_linear_2777_9342)"/>
<path d="M22.5626 19.95H17.0509C16.9283 19.95 16.8289 19.8506 16.8289 19.728V18.4779C16.8289 18.3552 16.9282 18.2559 17.0509 18.2559H22.5626C22.6852 18.2559 22.7846 18.3552 22.7846 18.4779V19.728C22.7846 19.8505 22.6852 19.95 22.5626 19.95Z" fill="url(#paint1_linear_2777_9342)"/>
<path d="M20.755 19.95H18.857C18.7831 19.95 18.7231 19.89 18.7231 19.8161V18.3897C18.7231 18.3158 18.7831 18.2559 18.857 18.2559H20.755C20.8289 18.2559 20.8889 18.3158 20.8889 18.3897V19.8161C20.8889 19.89 20.8289 19.95 20.755 19.95Z" fill="url(#paint2_linear_2777_9342)"/>
<path d="M16.3357 18.4626C16.1946 18.4626 16.0801 18.5771 16.0801 18.7183V19.9011C16.0801 19.9175 16.0818 19.9335 16.0847 19.9491C16.094 19.95 16.1033 19.9507 16.1128 19.9507H23.5C23.6412 19.9507 23.7557 19.8362 23.7557 19.695V18.5122C23.7557 18.4958 23.754 18.4798 23.751 18.4642C23.7418 18.4633 23.7324 18.4626 23.7229 18.4626H16.3357Z" fill="url(#paint3_linear_2777_9342)"/>
<path d="M23.4998 18.2577H16.1126C15.9714 18.2577 15.8569 18.1433 15.8569 18.002V16.8193C15.8569 16.678 15.9714 16.5636 16.1126 16.5636H23.4998C23.641 16.5636 23.7555 16.678 23.7555 16.8193V18.002C23.7555 18.1432 23.641 18.2577 23.4998 18.2577Z" fill="url(#paint4_linear_2777_9342)"/>
<path d="M22.5626 18.2577H17.0509C16.9283 18.2577 16.8289 18.1583 16.8289 18.0357V16.7856C16.8289 16.663 16.9282 16.5636 17.0509 16.5636H22.5626C22.6852 16.5636 22.7846 16.663 22.7846 16.7856V18.0357C22.7846 18.1583 22.6852 18.2577 22.5626 18.2577Z" fill="url(#paint5_linear_2777_9342)"/>
<path d="M20.755 18.2577H18.857C18.7831 18.2577 18.7231 18.1978 18.7231 18.1238V16.6975C18.7231 16.6236 18.7831 16.5636 18.857 16.5636H20.755C20.8289 16.5636 20.8889 16.6236 20.8889 16.6975V18.1238C20.8889 18.1978 20.8289 18.2577 20.755 18.2577Z" fill="url(#paint6_linear_2777_9342)"/>
<path d="M16.3357 16.7686C16.1946 16.7686 16.0801 16.883 16.0801 17.0242V18.207C16.0801 18.2234 16.0818 18.2394 16.0847 18.255C16.094 18.256 16.1033 18.2566 16.1128 18.2566H23.5C23.6412 18.2566 23.7557 18.1421 23.7557 18.0009V16.8181C23.7557 16.8017 23.754 16.7857 23.751 16.7702C23.7418 16.7691 23.7324 16.7686 23.7229 16.7686H16.3357Z" fill="url(#paint7_linear_2777_9342)"/>
<path d="M23.4998 16.5625H16.1126C15.9714 16.5625 15.8569 16.4481 15.8569 16.3069V15.1241C15.8569 14.9829 15.9714 14.8684 16.1126 14.8684H23.4998C23.641 14.8684 23.7555 14.9829 23.7555 15.1241V16.3069C23.7555 16.4481 23.641 16.5625 23.4998 16.5625Z" fill="url(#paint8_linear_2777_9342)"/>
<path d="M22.5626 16.5625H17.0509C16.9283 16.5625 16.8289 16.4631 16.8289 16.3405V15.0904C16.8289 14.9678 16.9282 14.8684 17.0509 14.8684H22.5626C22.6852 14.8684 22.7846 14.9678 22.7846 15.0904V16.3405C22.7846 16.4631 22.6852 16.5625 22.5626 16.5625Z" fill="url(#paint9_linear_2777_9342)"/>
<path d="M20.755 16.5625H18.857C18.7831 16.5625 18.7231 16.5026 18.7231 16.4286V15.0023C18.7231 14.9284 18.7831 14.8684 18.857 14.8684H20.755C20.8289 14.8684 20.8889 14.9284 20.8889 15.0023V16.4286C20.8889 16.5026 20.8289 16.5625 20.755 16.5625Z" fill="url(#paint10_linear_2777_9342)"/>
<path d="M16.3357 15.0752C16.1946 15.0752 16.0801 15.1896 16.0801 15.3309V16.5137C16.0801 16.5301 16.0818 16.5461 16.0847 16.5616C16.094 16.5626 16.1033 16.5632 16.1128 16.5632H23.5C23.6412 16.5632 23.7557 16.4488 23.7557 16.3075V15.1247C23.7557 15.1083 23.754 15.0923 23.751 15.0768C23.7418 15.0758 23.7324 15.0752 23.7229 15.0752H16.3357Z" fill="url(#paint11_linear_2777_9342)"/>
<path d="M23.4998 14.8684H16.1126C15.9714 14.8684 15.8569 14.754 15.8569 14.6128V13.43C15.8569 13.2888 15.9714 13.1743 16.1126 13.1743H23.4998C23.641 13.1743 23.7555 13.2888 23.7555 13.43V14.6128C23.7555 14.754 23.641 14.8684 23.4998 14.8684Z" fill="url(#paint12_linear_2777_9342)"/>
<path d="M22.5626 14.8684H17.0509C16.9283 14.8684 16.8289 14.769 16.8289 14.6464V13.3963C16.8289 13.2738 16.9282 13.1743 17.0509 13.1743H22.5626C22.6852 13.1743 22.7846 13.2737 22.7846 13.3963V14.6465C22.7846 14.769 22.6852 14.8684 22.5626 14.8684Z" fill="url(#paint13_linear_2777_9342)"/>
<path d="M20.755 14.8684H18.857C18.7831 14.8684 18.7231 14.8085 18.7231 14.7346V13.3082C18.7231 13.2343 18.7831 13.1743 18.857 13.1743H20.755C20.8289 13.1743 20.8889 13.2343 20.8889 13.3082V14.7346C20.8889 14.8085 20.8289 14.8684 20.755 14.8684Z" fill="url(#paint14_linear_2777_9342)"/>
<path d="M16.3357 13.3806C16.1946 13.3806 16.0801 13.4951 16.0801 13.6363V14.8191C16.0801 14.8355 16.0818 14.8515 16.0847 14.867C16.094 14.8681 16.1033 14.8686 16.1128 14.8686H23.5C23.6412 14.8686 23.7557 14.7542 23.7557 14.613V13.4302C23.7557 13.4137 23.754 13.3978 23.751 13.3822C23.7418 13.3812 23.7324 13.3806 23.7229 13.3806H16.3357Z" fill="url(#paint15_linear_2777_9342)"/>
<path d="M23.4998 13.1757H16.1126C15.9714 13.1757 15.8569 13.0612 15.8569 12.92V11.7372C15.8569 11.596 15.9714 11.4816 16.1126 11.4816H23.4998C23.641 11.4816 23.7555 11.596 23.7555 11.7372V12.92C23.7555 13.0612 23.641 13.1757 23.4998 13.1757Z" fill="url(#paint16_linear_2777_9342)"/>
<path d="M22.5626 13.1757H17.0509C16.9283 13.1757 16.8289 13.0763 16.8289 12.9537V11.7036C16.8289 11.581 16.9282 11.4816 17.0509 11.4816H22.5626C22.6852 11.4816 22.7846 11.581 22.7846 11.7036V12.9537C22.7846 13.0763 22.6852 13.1757 22.5626 13.1757Z" fill="url(#paint17_linear_2777_9342)"/>
<path d="M20.755 13.1757H18.857C18.7831 13.1757 18.7231 13.1157 18.7231 13.0418V11.6155C18.7231 11.5415 18.7831 11.4816 18.857 11.4816H20.755C20.8289 11.4816 20.8889 11.5415 20.8889 11.6155V13.0418C20.8889 13.1158 20.8289 13.1757 20.755 13.1757Z" fill="url(#paint18_linear_2777_9342)"/>
<path d="M16.3357 11.6864C16.1946 11.6864 16.0801 11.8008 16.0801 11.9421V13.1248C16.0801 13.1413 16.0818 13.1573 16.0847 13.1728C16.094 13.1738 16.1033 13.1744 16.1128 13.1744H23.5C23.6412 13.1744 23.7557 13.0599 23.7557 12.9187V11.736C23.7557 11.7195 23.754 11.7035 23.751 11.688C23.7418 11.687 23.7324 11.6864 23.7229 11.6864H16.3357Z" fill="url(#paint19_linear_2777_9342)"/>
<path d="M23.4998 11.4805H16.1126C15.9714 11.4805 15.8569 11.3661 15.8569 11.2248V10.042C15.8569 9.90082 15.9714 9.78638 16.1126 9.78638H23.4998C23.641 9.78638 23.7555 9.90082 23.7555 10.042V11.2248C23.7555 11.3661 23.641 11.4805 23.4998 11.4805Z" fill="url(#paint20_linear_2777_9342)"/>
<path d="M22.5626 11.4805H17.0509C16.9283 11.4805 16.8289 11.3811 16.8289 11.2585V10.0084C16.8289 9.88581 16.9282 9.78638 17.0509 9.78638H22.5626C22.6852 9.78638 22.7846 9.88576 22.7846 10.0084V11.2585C22.7846 11.3811 22.6852 11.4805 22.5626 11.4805Z" fill="url(#paint21_linear_2777_9342)"/>
<path d="M20.755 11.4805H18.857C18.7831 11.4805 18.7231 11.4205 18.7231 11.3466V9.92026C18.7231 9.84633 18.7831 9.78638 18.857 9.78638H20.755C20.8289 9.78638 20.8889 9.84633 20.8889 9.92026V11.3466C20.8889 11.4206 20.8289 11.4805 20.755 11.4805Z" fill="url(#paint22_linear_2777_9342)"/>
<path d="M16.3357 9.99316C16.1946 9.99316 16.0801 10.1076 16.0801 10.2488V11.4316C16.0801 11.448 16.0818 11.464 16.0847 11.4796C16.094 11.4805 16.1033 11.4812 16.1128 11.4812H23.5C23.6412 11.4812 23.7557 11.3667 23.7557 11.2255V10.0427C23.7557 10.0263 23.754 10.0103 23.751 9.99476C23.7418 9.99378 23.7324 9.99316 23.7229 9.99316H16.3357Z" fill="url(#paint23_linear_2777_9342)"/>
<path d="M23.4998 9.78702H16.1126C15.9714 9.78702 15.8569 9.67257 15.8569 9.53135V8.34857C15.8569 8.20734 15.9714 8.0929 16.1126 8.0929H23.4998C23.641 8.0929 23.7555 8.20734 23.7555 8.34857V9.53135C23.7555 9.67253 23.641 9.78702 23.4998 9.78702Z" fill="url(#paint24_linear_2777_9342)"/>
<path d="M22.5626 9.78644H17.0509C16.9283 9.78644 16.8289 9.68705 16.8289 9.56442V8.31431C16.8289 8.19172 16.9282 8.09229 17.0509 8.09229H22.5626C22.6852 8.09229 22.7846 8.19167 22.7846 8.31431V9.56437C22.7846 9.68701 22.6852 9.78644 22.5626 9.78644Z" fill="url(#paint25_linear_2777_9342)"/>
<path d="M20.755 9.78702H18.857C18.7831 9.78702 18.7231 9.72707 18.7231 9.65314V8.22678C18.7231 8.15285 18.7831 8.0929 18.857 8.0929H20.755C20.8289 8.0929 20.8889 8.15285 20.8889 8.22678V9.65314C20.8889 9.72707 20.8289 9.78702 20.755 9.78702Z" fill="url(#paint26_linear_2777_9342)"/>
<path d="M16.3357 8.29907C16.1946 8.29907 16.0801 8.41352 16.0801 8.55474V9.73751C16.0801 9.75394 16.0818 9.76994 16.0847 9.78546C16.094 9.78645 16.1033 9.78707 16.1128 9.78707H23.5C23.6412 9.78707 23.7557 9.67262 23.7557 9.5314V8.34863C23.7557 8.3322 23.754 8.3162 23.751 8.30067C23.7418 8.29968 23.7324 8.29907 23.7229 8.29907H16.3357Z" fill="url(#paint27_linear_2777_9342)"/>
<path d="M23.4998 8.09244H16.1126C15.9714 8.09244 15.8569 7.97799 15.8569 7.83677V6.65399C15.8569 6.51276 15.9714 6.39832 16.1126 6.39832H23.4998C23.641 6.39832 23.7555 6.51276 23.7555 6.65399V7.83677C23.7555 7.97794 23.641 8.09244 23.4998 8.09244Z" fill="url(#paint28_linear_2777_9342)"/>
<path d="M22.5626 8.09244H17.0509C16.9283 8.09244 16.8289 7.99305 16.8289 7.87041V6.62034C16.8289 6.49775 16.9282 6.39832 17.0509 6.39832H22.5626C22.6852 6.39832 22.7846 6.4977 22.7846 6.62034V7.87041C22.7846 7.99305 22.6852 8.09244 22.5626 8.09244Z" fill="url(#paint29_linear_2777_9342)"/>
<path d="M20.755 8.09244H18.857C18.7831 8.09244 18.7231 8.03248 18.7231 7.95855V6.5322C18.7231 6.45827 18.7831 6.39832 18.857 6.39832H20.755C20.8289 6.39832 20.8889 6.45827 20.8889 6.5322V7.95855C20.8889 8.03248 20.8289 8.09244 20.755 8.09244Z" fill="url(#paint30_linear_2777_9342)"/>
<path d="M16.3357 6.60522C16.1946 6.60522 16.0801 6.71967 16.0801 6.86089V8.04366C16.0801 8.06009 16.0818 8.07604 16.0847 8.09162C16.094 8.09261 16.1033 8.09322 16.1128 8.09322H23.5C23.6412 8.09322 23.7557 7.97877 23.7557 7.83755V6.65478C23.7557 6.63835 23.754 6.62235 23.751 6.60682C23.7418 6.60584 23.7324 6.60522 23.7229 6.60522H16.3357Z" fill="url(#paint31_linear_2777_9342)"/>
<path d="M19.6567 12.5967L18.9779 9.03653C18.4715 6.381 16.1496 4.45996 13.4462 4.45996H10.8992C8.1958 4.45996 5.87387 6.381 5.36752 9.03653L4.98263 11.055C4.61274 12.9948 4.0215 14.8925 3.13726 16.6582C2.87872 17.1744 2.74296 17.7627 2.76842 18.3851C2.84197 20.1858 4.42677 21.7353 6.22865 21.7705C6.24187 21.7708 6.25505 21.771 6.26823 21.7711C7.08573 21.7782 7.87284 22.0968 8.44616 22.6796C9.08691 23.331 9.9782 23.735 10.9642 23.735C12.1609 23.735 13.2183 23.1401 13.8575 22.23C14.0633 21.937 14.4008 21.7705 14.7589 21.7712H14.7651C14.919 21.7712 15.0701 21.7598 15.2178 21.7379C15.4964 21.6966 15.7783 21.7677 16.0082 21.9304C16.6302 22.3703 17.4004 22.6145 18.2295 22.5726C20.0038 22.4828 21.4511 21.0625 21.5717 19.29C21.6151 18.6522 21.4889 18.0478 21.2339 17.5169C20.4856 15.9585 19.9805 14.2947 19.6567 12.5967Z" fill="url(#paint32_radial_2777_9342)"/>
<path d="M6.29872 21.7719C8.25053 21.7719 9.83279 20.1896 9.83279 18.2378C9.83279 16.286 8.25053 14.7037 6.29872 14.7037C4.34691 14.7037 2.76465 16.286 2.76465 18.2378C2.76465 20.1896 4.34691 21.7719 6.29872 21.7719Z" fill="url(#paint33_linear_2777_9342)"/>
<path d="M10.9638 23.7344C12.9156 23.7344 14.4978 22.1521 14.4978 20.2003C14.4978 18.2485 12.9156 16.6663 10.9638 16.6663C9.01195 16.6663 7.42969 18.2485 7.42969 20.2003C7.42969 22.1521 9.01195 23.7344 10.9638 23.7344Z" fill="url(#paint34_linear_2777_9342)"/>
<path d="M18.0453 22.5769C19.9971 22.5769 21.5794 20.9947 21.5794 19.0429C21.5794 17.091 19.9971 15.5088 18.0453 15.5088C16.0935 15.5088 14.5112 17.091 14.5112 19.0429C14.5112 20.9947 16.0935 22.5769 18.0453 22.5769Z" fill="url(#paint35_linear_2777_9342)"/>
<path d="M21.5708 19.2899C21.6142 18.6522 21.4881 18.0477 21.2331 17.5168C20.4848 15.9585 19.9797 14.2947 19.656 12.5966L18.9771 9.0364C18.7934 8.07283 18.3697 7.2068 17.7764 6.4933C16.7945 5.68026 15.5375 5.19946 14.1851 5.19946H11.638C8.93466 5.19946 6.61268 7.1205 6.10633 9.77603L5.72143 11.7945C5.35155 13.7343 4.7603 15.632 3.87607 17.3976C3.61753 17.9139 3.48176 18.5022 3.50717 19.1246C3.53612 19.8331 3.79969 20.5021 4.21767 21.0558C4.79287 21.4891 5.49216 21.756 6.22783 21.7704C6.24106 21.7706 6.25423 21.7708 6.26741 21.7709C7.08492 21.778 7.87207 22.0966 8.44539 22.6794C9.08614 23.3308 9.97743 23.7348 10.9635 23.7348C12.1601 23.7348 13.2175 23.1399 13.8568 22.2298C14.0626 21.9368 14.4001 21.7703 14.7581 21.771H14.7644C14.9182 21.771 15.0693 21.7597 15.2171 21.7377C15.4956 21.6965 15.7775 21.7676 16.0075 21.9302C16.6294 22.3701 17.3996 22.6144 18.2287 22.5724C20.0029 22.4827 21.4503 21.0624 21.5708 19.2899Z" fill="url(#paint36_linear_2777_9342)"/>
<path d="M14.2248 8.62014C13.969 8.54099 13.7259 8.484 13.4956 8.44885C13.3846 8.43186 13.2724 8.41812 13.1593 8.40729C13.1583 8.40678 13.1575 8.40626 13.1566 8.40574L12.6385 7.86918C12.5362 7.8024 12.4252 7.7688 12.3059 7.7688C12.1693 7.7688 12.0542 7.80061 11.9605 7.86376C11.8665 7.9271 11.8198 8.0023 11.8198 8.08903V8.42122C11.0778 8.52555 10.4658 8.79962 9.98404 9.24315C9.50206 9.68668 9.26126 10.2953 9.26126 11.0693C9.26126 11.3849 9.31665 11.6728 9.42752 11.9328C9.5383 12.1931 9.66625 12.4062 9.81138 12.5725L11.8198 14.5827V15.777C11.4872 15.7175 11.1246 15.5489 10.7325 15.2717C10.34 14.9947 10.0628 14.856 9.90089 14.856C9.67063 14.856 9.46799 14.9755 9.29322 15.2142C9.11835 15.453 9.03101 15.6919 9.03101 15.9306C9.03101 16.2416 9.18362 16.529 9.48832 16.7928L14.4966 21.801C14.5813 21.7812 14.6689 21.771 14.7579 21.7712H14.7641C14.9179 21.7712 15.0691 21.7598 15.2168 21.7379C15.4954 21.6966 15.7772 21.7677 16.0072 21.9304C16.6292 22.3703 17.3993 22.6145 18.2284 22.5726C20.0027 22.4828 21.4501 21.0624 21.5706 19.29C21.614 18.6522 21.4879 18.0478 21.2329 17.5168C20.7121 16.4323 20.3094 15.2966 20.0033 14.1339L14.8453 8.97595C14.6873 8.81783 14.4807 8.69929 14.2248 8.62014Z" fill="url(#paint37_linear_2777_9342)"/>
<path d="M15.1523 13.8454C15.0455 13.5726 14.9176 13.3464 14.7685 13.1674C14.6191 12.9883 14.4209 12.8178 14.1736 12.6557C13.9261 12.4937 13.7045 12.3701 13.5084 12.2847C13.3121 12.1995 13.0734 12.1014 12.792 11.9904V10.1227C13.099 10.1483 13.3953 10.2336 13.6811 10.3785C13.9668 10.5237 14.1693 10.596 14.2888 10.596C14.536 10.596 14.7301 10.4747 14.8709 10.232C15.0116 9.98936 15.0819 9.75511 15.0819 9.52965C15.0819 9.31878 15.003 9.1343 14.8453 8.97595C14.6873 8.81783 14.4807 8.69934 14.2248 8.62014C13.969 8.54099 13.7259 8.484 13.4956 8.44885C13.2653 8.41365 13.0307 8.39167 12.792 8.38287V8.08762C12.792 8.00885 12.7408 7.93609 12.6385 7.86913C12.5362 7.80235 12.4252 7.7688 12.3059 7.7688C12.1693 7.7688 12.0542 7.80061 11.9605 7.86376C11.8665 7.9271 11.8198 8.0023 11.8198 8.08903V8.42122C11.0778 8.52555 10.4658 8.79962 9.98404 9.24315C9.50206 9.68668 9.26126 10.2953 9.26126 11.0693C9.26126 11.3849 9.3166 11.6728 9.42752 11.9328C9.5383 12.1931 9.66625 12.4062 9.81138 12.5725C9.95627 12.7388 10.161 12.9009 10.4254 13.0586C10.6896 13.2165 10.9116 13.3336 11.0906 13.4104C11.2697 13.4871 11.5128 13.5853 11.8198 13.7046V15.777C11.4872 15.7175 11.1246 15.5489 10.7325 15.2717C10.34 14.9947 10.0628 14.856 9.90089 14.856C9.67063 14.856 9.46799 14.9755 9.29322 15.2142C9.11835 15.453 9.03101 15.6919 9.03101 15.9306C9.03101 16.3486 9.30606 16.7237 9.85613 17.0564C10.4062 17.389 11.0606 17.5681 11.8198 17.5936V17.9135C11.8198 18.0072 11.8666 18.0881 11.9605 18.1565C12.0542 18.2247 12.1694 18.2589 12.3059 18.2589C12.4252 18.2589 12.5362 18.2225 12.6385 18.1501C12.7409 18.0776 12.7921 17.9986 12.7921 17.9135V17.5424C13.5597 17.4145 14.1715 17.1119 14.6278 16.6342C15.084 16.1566 15.3122 15.5298 15.3122 14.7536C15.3122 14.421 15.2588 14.1184 15.1523 13.8454ZM11.9477 11.6834C11.4018 11.4531 11.1289 11.1845 11.1289 10.8775C11.1289 10.5109 11.4018 10.272 11.9477 10.161V11.6834ZM12.6641 15.7643V14.0501C13.1842 14.2975 13.4445 14.6001 13.4445 14.9584C13.4445 15.3763 13.1842 15.6449 12.6641 15.7643Z" fill="url(#paint38_linear_2777_9342)"/>
<path d="M8.13472 14.0309C8.10776 13.9185 8.00771 13.8347 7.88715 13.8347H6.9494H5.14253H4.2791C3.96926 14.8023 3.59195 15.7474 3.13632 16.6572C2.87778 17.1734 2.74202 17.7617 2.76743 18.3841C2.84098 20.1848 4.42583 21.7343 6.22771 21.7695C6.24093 21.7698 6.25411 21.77 6.26729 21.7701C7.08479 21.7772 7.87195 22.0958 8.44526 22.6786C9.08602 23.33 9.97731 23.734 10.9633 23.734C12.16 23.734 13.2174 23.139 13.8567 22.229C14.0624 21.936 14.3999 21.7695 14.758 21.7702H14.7642C14.9181 21.7702 15.0692 21.7588 15.2169 21.7369C15.4955 21.6956 15.7774 21.7667 16.0073 21.9294C16.0337 21.948 16.0607 21.9659 16.0877 21.9838L8.13472 14.0309Z" fill="url(#paint39_linear_2777_9342)"/>
<path d="M7.88701 23.9997H0.499811C0.358635 23.9997 0.244141 23.8852 0.244141 23.744V22.5612C0.244141 22.42 0.358588 22.3055 0.499811 22.3055H7.88701C8.02819 22.3055 8.14268 22.42 8.14268 22.5612V23.744C8.14268 23.8852 8.02819 23.9997 7.88701 23.9997Z" fill="url(#paint40_linear_2777_9342)"/>
<path d="M6.94932 23.9997H1.4376C1.31496 23.9997 1.21558 23.9003 1.21558 23.7776V22.5276C1.21558 22.405 1.31496 22.3055 1.4376 22.3055H6.94932C7.07191 22.3055 7.17134 22.4049 7.17134 22.5276V23.7776C7.17134 23.9003 7.07195 23.9997 6.94932 23.9997Z" fill="url(#paint41_linear_2777_9342)"/>
<path d="M5.14294 23.9997H3.24497C3.17104 23.9997 3.11108 23.9397 3.11108 23.8658V22.4394C3.11108 22.3655 3.17104 22.3055 3.24497 22.3055H5.14294C5.21687 22.3055 5.27683 22.3655 5.27683 22.4394V23.8658C5.27683 23.9397 5.21687 23.9997 5.14294 23.9997Z" fill="url(#paint42_linear_2777_9342)"/>
<path d="M0.7232 22.5128C0.581976 22.5128 0.467529 22.6273 0.467529 22.7685V23.9513C0.467529 23.9677 0.469223 23.9837 0.472188 23.9992C0.481412 24.0002 0.490776 24.0008 0.500282 24.0008H7.88748C8.02871 24.0008 8.14315 23.8864 8.14315 23.7452V22.5624C8.14315 22.5459 8.14146 22.5299 8.13849 22.5144C8.12927 22.5134 8.11991 22.5128 8.1104 22.5128H0.7232Z" fill="url(#paint43_linear_2777_9342)"/>
<path d="M21.7386 23.9997H14.3514C14.2102 23.9997 14.0957 23.8852 14.0957 23.744V22.5612C14.0957 22.42 14.2102 22.3055 14.3514 22.3055H21.7386C21.8798 22.3055 21.9943 22.42 21.9943 22.5612V23.744C21.9943 23.8852 21.8798 23.9997 21.7386 23.9997Z" fill="url(#paint44_linear_2777_9342)"/>
<path d="M20.8014 23.9997H15.2897C15.1671 23.9997 15.0676 23.9003 15.0676 23.7776V22.5276C15.0676 22.405 15.167 22.3055 15.2897 22.3055H20.8014C20.9239 22.3055 21.0234 22.4049 21.0234 22.5276V23.7776C21.0234 23.9003 20.9239 23.9997 20.8014 23.9997Z" fill="url(#paint45_linear_2777_9342)"/>
<path d="M18.9945 23.9997H17.0965C17.0226 23.9997 16.9626 23.9397 16.9626 23.8658V22.4394C16.9626 22.3655 17.0226 22.3055 17.0965 22.3055H18.9945C19.0684 22.3055 19.1284 22.3655 19.1284 22.4394V23.8658C19.1284 23.9397 19.0684 23.9997 18.9945 23.9997Z" fill="url(#paint46_linear_2777_9342)"/>
<path d="M14.5743 22.5128C14.4331 22.5128 14.3186 22.6273 14.3186 22.7685V23.9513C14.3186 23.9677 14.3203 23.9837 14.3233 23.9992C14.3325 24.0002 14.3419 24.0008 14.3514 24.0008H21.7386C21.8797 24.0008 21.9942 23.8864 21.9942 23.7452V22.5624C21.9942 22.5459 21.9925 22.5299 21.9896 22.5144C21.9803 22.5134 21.971 22.5128 21.9615 22.5128H14.5743Z" fill="url(#paint47_linear_2777_9342)"/>
<path d="M7.88701 22.3068H0.499811C0.358635 22.3068 0.244141 22.1923 0.244141 22.0511V20.8683C0.244141 20.7271 0.358588 20.6127 0.499811 20.6127H7.88701C8.02819 20.6127 8.14268 20.7271 8.14268 20.8683V22.0511C8.14268 22.1923 8.02819 22.3068 7.88701 22.3068Z" fill="url(#paint48_linear_2777_9342)"/>
<path d="M6.94932 22.306H1.4376C1.31496 22.306 1.21558 22.2066 1.21558 22.084V20.8338C1.21558 20.7113 1.31496 20.6118 1.4376 20.6118H6.94932C7.07191 20.6118 7.17134 20.7112 7.17134 20.8338V22.084C7.17134 22.2066 7.07195 22.306 6.94932 22.306Z" fill="url(#paint49_linear_2777_9342)"/>
<path d="M5.14294 22.3068H3.24497C3.17104 22.3068 3.11108 22.2468 3.11108 22.1729V20.7466C3.11108 20.6726 3.17104 20.6127 3.24497 20.6127H5.14294C5.21687 20.6127 5.27683 20.6726 5.27683 20.7466V22.1729C5.27683 22.2468 5.21687 22.3068 5.14294 22.3068Z" fill="url(#paint50_linear_2777_9342)"/>
<path d="M0.7232 20.8176C0.581976 20.8176 0.467529 20.9321 0.467529 21.0733V22.2561C0.467529 22.2725 0.469223 22.2885 0.472188 22.304C0.481412 22.3051 0.490776 22.3056 0.500282 22.3056H7.88748C8.02871 22.3056 8.14315 22.1912 8.14315 22.05V20.8672C8.14315 20.8508 8.14146 20.8348 8.13849 20.8192C8.12927 20.8182 8.11991 20.8176 8.1104 20.8176H0.7232Z" fill="url(#paint51_linear_2777_9342)"/>
<path d="M21.7386 22.3068H14.3514C14.2102 22.3068 14.0957 22.1923 14.0957 22.0511V20.8683C14.0957 20.7271 14.2102 20.6127 14.3514 20.6127H21.7386C21.8798 20.6127 21.9943 20.7271 21.9943 20.8683V22.0511C21.9943 22.1923 21.8798 22.3068 21.7386 22.3068Z" fill="url(#paint52_linear_2777_9342)"/>
<path d="M20.8014 22.306H15.2897C15.1671 22.306 15.0676 22.2066 15.0676 22.084V20.8338C15.0676 20.7113 15.167 20.6118 15.2897 20.6118H20.8014C20.9239 20.6118 21.0234 20.7112 21.0234 20.8338V22.084C21.0234 22.2066 20.9239 22.306 20.8014 22.306Z" fill="url(#paint53_linear_2777_9342)"/>
<path d="M18.9945 22.3068H17.0965C17.0226 22.3068 16.9626 22.2468 16.9626 22.1729V20.7466C16.9626 20.6726 17.0226 20.6127 17.0965 20.6127H18.9945C19.0684 20.6127 19.1284 20.6726 19.1284 20.7466V22.1729C19.1284 22.2468 19.0684 22.3068 18.9945 22.3068Z" fill="url(#paint54_linear_2777_9342)"/>
<path d="M14.5743 20.8176C14.4331 20.8176 14.3186 20.9321 14.3186 21.0733V22.2561C14.3186 22.2725 14.3203 22.2885 14.3233 22.304C14.3325 22.3051 14.3419 22.3056 14.3514 22.3056H21.7386C21.8797 22.3056 21.9942 22.1912 21.9942 22.05V20.8672C21.9942 20.8508 21.9925 20.8348 21.9896 20.8192C21.9803 20.8182 21.971 20.8176 21.9615 20.8176H14.5743Z" fill="url(#paint55_linear_2777_9342)"/>
<path d="M7.88701 20.6121H0.499811C0.358635 20.6121 0.244141 20.4976 0.244141 20.3564V19.1736C0.244141 19.0325 0.358588 18.918 0.499811 18.918H7.88701C8.02819 18.918 8.14268 19.0324 8.14268 19.1736V20.3564C8.14268 20.4976 8.02819 20.6121 7.88701 20.6121Z" fill="url(#paint56_linear_2777_9342)"/>
<path d="M6.94932 20.6121H1.4376C1.31496 20.6121 1.21558 20.5127 1.21558 20.3901V19.14C1.21558 19.0174 1.31496 18.918 1.4376 18.918H6.94932C7.07191 18.918 7.17134 19.0174 7.17134 19.14V20.3901C7.17134 20.5127 7.07195 20.6121 6.94932 20.6121Z" fill="url(#paint57_linear_2777_9342)"/>
<path d="M5.14294 20.6121H3.24497C3.17104 20.6121 3.11108 20.5521 3.11108 20.4782V19.0519C3.11108 18.9779 3.17104 18.918 3.24497 18.918H5.14294C5.21687 18.918 5.27683 18.9779 5.27683 19.0519V20.4782C5.27683 20.5522 5.21687 20.6121 5.14294 20.6121Z" fill="url(#paint58_linear_2777_9342)"/>
<path d="M0.7232 19.1226C0.581976 19.1226 0.467529 19.237 0.467529 19.3782V20.561C0.467529 20.5774 0.469223 20.5934 0.472188 20.609C0.481412 20.61 0.490776 20.6106 0.500282 20.6106H7.88748C8.02871 20.6106 8.14315 20.4961 8.14315 20.3549V19.1721C8.14315 19.1557 8.14146 19.1397 8.13849 19.1242C8.12927 19.1232 8.11991 19.1226 8.1104 19.1226H0.7232Z" fill="url(#paint59_linear_2777_9342)"/>
<path d="M7.88701 18.9169H0.499811C0.358635 18.9169 0.244141 18.8025 0.244141 18.6612V17.4785C0.244141 17.3372 0.358588 17.2228 0.499811 17.2228H7.88701C8.02819 17.2228 8.14268 17.3372 8.14268 17.4785V18.6612C8.14268 18.8025 8.02819 18.9169 7.88701 18.9169Z" fill="url(#paint60_linear_2777_9342)"/>
<path d="M6.94932 18.9187H1.4376C1.31496 18.9187 1.21558 18.8193 1.21558 18.6966V17.4465C1.21558 17.3239 1.31496 17.2245 1.4376 17.2245H6.94932C7.07191 17.2245 7.17134 17.3239 7.17134 17.4465V18.6966C7.17134 18.8193 7.07195 18.9187 6.94932 18.9187Z" fill="url(#paint61_linear_2777_9342)"/>
<path d="M5.14294 18.9169H3.24497C3.17104 18.9169 3.11108 18.8569 3.11108 18.783V17.3567C3.11108 17.2827 3.17104 17.2228 3.24497 17.2228H5.14294C5.21687 17.2228 5.27683 17.2827 5.27683 17.3567V18.783C5.27683 18.857 5.21687 18.9169 5.14294 18.9169Z" fill="url(#paint62_linear_2777_9342)"/>
<path d="M0.7232 17.4307C0.581976 17.4307 0.467529 17.5451 0.467529 17.6863V18.8691C0.467529 18.8855 0.469223 18.9015 0.472188 18.9171C0.481412 18.9181 0.490776 18.9187 0.500282 18.9187H7.88748C8.02871 18.9187 8.14315 18.8042 8.14315 18.663V17.4802C8.14315 17.4638 8.14146 17.4478 8.13849 17.4323C8.12927 17.4312 8.11991 17.4307 8.1104 17.4307H0.7232Z" fill="url(#paint63_linear_2777_9342)"/>
<path d="M7.88701 17.224H0.499811C0.358635 17.224 0.244141 17.1096 0.244141 16.9684V15.7856C0.244141 15.6444 0.358588 15.5299 0.499811 15.5299H7.88701C8.02819 15.5299 8.14268 15.6444 8.14268 15.7856V16.9684C8.14268 17.1095 8.02819 17.224 7.88701 17.224Z" fill="url(#paint64_linear_2777_9342)"/>
<path d="M6.94932 17.224H1.4376C1.31496 17.224 1.21558 17.1246 1.21558 17.002V15.7519C1.21558 15.6293 1.31496 15.5299 1.4376 15.5299H6.94932C7.07191 15.5299 7.17134 15.6293 7.17134 15.7519V17.002C7.17134 17.1246 7.07195 17.224 6.94932 17.224Z" fill="url(#paint65_linear_2777_9342)"/>
<path d="M5.14294 17.224H3.24497C3.17104 17.224 3.11108 17.1641 3.11108 17.0901V15.6638C3.11108 15.5899 3.17104 15.5299 3.24497 15.5299H5.14294C5.21687 15.5299 5.27683 15.5899 5.27683 15.6638V17.0901C5.27683 17.1641 5.21687 17.224 5.14294 17.224Z" fill="url(#paint66_linear_2777_9342)"/>
<path d="M0.7232 15.7355C0.581976 15.7355 0.467529 15.8499 0.467529 15.9911V17.1739C0.467529 17.1904 0.469223 17.2064 0.472188 17.2219C0.481412 17.2229 0.490776 17.2235 0.500282 17.2235H7.88748C8.02871 17.2235 8.14315 17.109 8.14315 16.9678V15.785C8.14315 15.7686 8.14146 15.7527 8.13849 15.7371C8.12927 15.7361 8.11991 15.7355 8.1104 15.7355H0.7232Z" fill="url(#paint67_linear_2777_9342)"/>
<path d="M7.88701 15.5288H0.499811C0.358635 15.5288 0.244141 15.4144 0.244141 15.2732V14.0904C0.244141 13.9492 0.358588 13.8347 0.499811 13.8347H7.88701C8.02819 13.8347 8.14268 13.9492 8.14268 14.0904V15.2732C8.14268 15.4143 8.02819 15.5288 7.88701 15.5288Z" fill="url(#paint68_linear_2777_9342)"/>
<path d="M6.94932 15.5306H1.4376C1.31496 15.5306 1.21558 15.4312 1.21558 15.3086V14.0584C1.21558 13.9359 1.31496 13.8364 1.4376 13.8364H6.94932C7.07191 13.8364 7.17134 13.9358 7.17134 14.0584V15.3086C7.17134 15.4312 7.07195 15.5306 6.94932 15.5306Z" fill="url(#paint69_linear_2777_9342)"/>
<path d="M5.14294 15.5288H3.24497C3.17104 15.5288 3.11108 15.4689 3.11108 15.395V13.9686C3.11108 13.8947 3.17104 13.8347 3.24497 13.8347H5.14294C5.21687 13.8347 5.27683 13.8947 5.27683 13.9686V15.395C5.27683 15.4689 5.21687 15.5288 5.14294 15.5288Z" fill="url(#paint70_linear_2777_9342)"/>
<path d="M0.7232 14.0416C0.581976 14.0416 0.467529 14.1561 0.467529 14.2973V15.4801C0.467529 15.4965 0.469223 15.5125 0.472188 15.528C0.481412 15.529 0.490776 15.5296 0.500282 15.5296H7.88748C8.02871 15.5296 8.14315 15.4152 8.14315 15.274V14.0912C8.14315 14.0748 8.14146 14.0588 8.13849 14.0432C8.12927 14.0422 8.11991 14.0416 8.1104 14.0416H0.7232Z" fill="url(#paint71_linear_2777_9342)"/>
<path d="M4.37942 9.86669C3.67288 10.3271 3.07006 10.9336 2.61354 11.6431C2.51086 11.8026 2.27396 11.8022 2.17189 11.6423C1.71796 10.9312 1.11735 10.3225 0.412505 9.85949C0.256034 9.75672 0.256458 9.52307 0.413305 9.42086C1.11985 8.96044 1.72267 8.35399 2.17919 7.64453C2.28182 7.48501 2.51876 7.48543 2.62083 7.64534C3.07476 8.35644 3.67538 8.9651 4.38027 9.42811C4.53669 9.53084 4.53627 9.76453 4.37942 9.86669Z" fill="url(#paint72_linear_2777_9342)"/>
<path d="M13.9074 4.45864H10.4358L8.85646 1.43087C8.62328 0.983906 8.88949 0.438871 9.38535 0.347953L10.4197 0.158306C11.578 -0.0540707 12.7653 -0.0540707 13.9236 0.158306L14.9579 0.347953C15.4538 0.438871 15.72 0.983859 15.4868 1.43087L13.9074 4.45864Z" fill="url(#paint73_linear_2777_9342)"/>
<path d="M12.7495 4.45864H11.5949L11.0697 1.43087C10.9921 0.983906 11.0807 0.438871 11.2456 0.347953L11.5896 0.158306C11.9748 -0.0540707 12.3697 -0.0540707 12.7549 0.158306L13.0989 0.347953C13.2639 0.438871 13.3524 0.983859 13.2748 1.43087L12.7495 4.45864Z" fill="url(#paint74_linear_2777_9342)"/>
<path d="M15.4346 0.654215C15.5023 0.750497 15.4682 0.884662 15.3632 0.937886C14.8707 1.18838 14.2882 1.18838 13.7957 0.937886L13.3603 0.716803C12.8678 0.466309 12.2853 0.466309 11.7928 0.716803L11.3579 0.937886C10.8653 1.18838 10.2829 1.18838 9.79031 0.937886L9.33483 0.706215C9.17526 0.625039 9.205 0.383674 9.38095 0.350638C9.38246 0.350356 9.38392 0.350074 9.38542 0.349791L10.4197 0.159768C11.5778 -0.0522794 12.7654 -0.0522794 13.9235 0.159768L14.9578 0.349791C15.1621 0.387015 15.3271 0.501274 15.4346 0.654215Z" fill="url(#paint75_linear_2777_9342)"/>
<path d="M15.4969 1.07704C15.5202 1.02061 15.537 0.962729 15.5494 0.904377C15.4814 0.632659 15.2636 0.404 14.958 0.347953L13.9237 0.158306C12.7654 -0.0540707 11.5781 -0.0540707 10.4198 0.158306L9.64833 0.299765C9.55167 0.531341 9.53934 0.818588 9.64588 1.07704L11.0396 4.45864H13.9075L14.8399 2.67129L15.4969 1.07704Z" fill="url(#paint76_linear_2777_9342)"/>
<path d="M12.1723 4.79874C11.4198 4.79874 10.7075 4.75013 10.1238 4.6603C9.93153 4.6307 9.80259 4.44745 9.84137 4.25686C9.87741 4.07964 10.0458 3.96167 10.2246 3.98905C10.7728 4.0731 11.4625 4.12016 12.1723 4.12016C12.8821 4.12016 13.5717 4.0731 14.12 3.98905C14.2988 3.96167 14.4672 4.07959 14.5032 4.25686C14.542 4.44745 14.4131 4.63075 14.2208 4.6603C13.6371 4.75013 12.9248 4.79874 12.1723 4.79874Z" fill="url(#paint77_linear_2777_9342)"/>
<path d="M20.7643 4.61794C20.2647 4.94355 19.8384 5.37239 19.5155 5.87414C19.4429 5.98694 19.2754 5.98665 19.2032 5.87357C18.8822 5.3707 18.4575 4.9403 17.959 4.61286C17.8484 4.5402 17.8487 4.37493 17.9596 4.30265C18.4592 3.97705 18.8855 3.5482 19.2083 3.04646C19.281 2.93366 19.4485 2.93394 19.5207 3.04702C19.8417 3.5499 20.2664 3.9803 20.7649 4.30773C20.8755 4.38044 20.8752 4.54566 20.7643 4.61794Z" fill="url(#paint78_linear_2777_9342)"/>
<path d="M7.19277 3.45815C6.69314 3.78375 6.26683 4.2126 5.94401 4.71434C5.8714 4.82714 5.70387 4.82686 5.63168 4.71378C5.31069 4.21091 4.88594 3.78051 4.38749 3.45307C4.27685 3.38041 4.27713 3.21514 4.38805 3.14286C4.88768 2.81726 5.31398 2.38841 5.63681 1.88667C5.70942 1.77387 5.87695 1.77415 5.94914 1.88723C6.27013 2.39011 6.69488 2.82051 7.19333 3.14794C7.30397 3.22065 7.30368 3.38587 7.19277 3.45815Z" fill="url(#paint79_linear_2777_9342)"/>
</g>
<defs>
<linearGradient id="paint0_linear_2777_9342" x1="19.8062" y1="18.2908" x2="19.8062" y2="20.4872" gradientUnits="userSpaceOnUse">
<stop stop-color="#E4F2FF"/>
<stop offset="1" stop-color="#B2CBFF"/>
</linearGradient>
<linearGradient id="paint1_linear_2777_9342" x1="19.8067" y1="18.3226" x2="19.8067" y2="22.0166" gradientUnits="userSpaceOnUse">
<stop stop-color="#3F3CED" stop-opacity="0"/>
<stop offset="0.2796" stop-color="#3C3DE4" stop-opacity="0.28"/>
<stop offset="0.7305" stop-color="#3541CC" stop-opacity="0.731"/>
<stop offset="1" stop-color="#2F43BB"/>
</linearGradient>
<linearGradient id="paint2_linear_2777_9342" x1="19.806" y1="18.3226" x2="19.806" y2="22.0166" gradientUnits="userSpaceOnUse">
<stop stop-color="#3F3CED" stop-opacity="0"/>
<stop offset="0.2796" stop-color="#3C3DE4" stop-opacity="0.28"/>
<stop offset="0.7305" stop-color="#3541CC" stop-opacity="0.731"/>
<stop offset="1" stop-color="#2F43BB"/>
</linearGradient>
<linearGradient id="paint3_linear_2777_9342" x1="19.7973" y1="18.9151" x2="18.9214" y2="16.7971" gradientUnits="userSpaceOnUse">
<stop stop-color="white" stop-opacity="0"/>
<stop offset="1" stop-color="white"/>
</linearGradient>
<linearGradient id="paint4_linear_2777_9342" x1="19.8062" y1="16.5985" x2="19.8062" y2="18.795" gradientUnits="userSpaceOnUse">
<stop stop-color="#E4F2FF"/>
<stop offset="1" stop-color="#B2CBFF"/>
</linearGradient>
<linearGradient id="paint5_linear_2777_9342" x1="19.8067" y1="16.6304" x2="19.8067" y2="20.3244" gradientUnits="userSpaceOnUse">
<stop stop-color="#3F3CED" stop-opacity="0"/>
<stop offset="0.2796" stop-color="#3C3DE4" stop-opacity="0.28"/>
<stop offset="0.7305" stop-color="#3541CC" stop-opacity="0.731"/>
<stop offset="1" stop-color="#2F43BB"/>
</linearGradient>
<linearGradient id="paint6_linear_2777_9342" x1="19.806" y1="16.6304" x2="19.806" y2="20.3244" gradientUnits="userSpaceOnUse">
<stop stop-color="#3F3CED" stop-opacity="0"/>
<stop offset="0.2796" stop-color="#3C3DE4" stop-opacity="0.28"/>
<stop offset="0.7305" stop-color="#3541CC" stop-opacity="0.731"/>
<stop offset="1" stop-color="#2F43BB"/>
</linearGradient>
<linearGradient id="paint7_linear_2777_9342" x1="19.7973" y1="17.221" x2="18.9214" y2="15.103" gradientUnits="userSpaceOnUse">
<stop stop-color="white" stop-opacity="0"/>
<stop offset="1" stop-color="white"/>
</linearGradient>
<linearGradient id="paint8_linear_2777_9342" x1="19.8062" y1="14.9033" x2="19.8062" y2="17.0998" gradientUnits="userSpaceOnUse">
<stop stop-color="#E4F2FF"/>
<stop offset="1" stop-color="#B2CBFF"/>
</linearGradient>
<linearGradient id="paint9_linear_2777_9342" x1="19.8067" y1="14.9352" x2="19.8067" y2="18.6292" gradientUnits="userSpaceOnUse">
<stop stop-color="#3F3CED" stop-opacity="0"/>
<stop offset="0.2796" stop-color="#3C3DE4" stop-opacity="0.28"/>
<stop offset="0.7305" stop-color="#3541CC" stop-opacity="0.731"/>
<stop offset="1" stop-color="#2F43BB"/>
</linearGradient>
<linearGradient id="paint10_linear_2777_9342" x1="19.806" y1="14.9352" x2="19.806" y2="18.6292" gradientUnits="userSpaceOnUse">
<stop stop-color="#3F3CED" stop-opacity="0"/>
<stop offset="0.2796" stop-color="#3C3DE4" stop-opacity="0.28"/>
<stop offset="0.7305" stop-color="#3541CC" stop-opacity="0.731"/>
<stop offset="1" stop-color="#2F43BB"/>
</linearGradient>
<linearGradient id="paint11_linear_2777_9342" x1="19.7973" y1="15.5276" x2="18.9214" y2="13.4096" gradientUnits="userSpaceOnUse">
<stop stop-color="white" stop-opacity="0"/>
<stop offset="1" stop-color="white"/>
</linearGradient>
<linearGradient id="paint12_linear_2777_9342" x1="19.8062" y1="13.2092" x2="19.8062" y2="15.4057" gradientUnits="userSpaceOnUse">
<stop stop-color="#E4F2FF"/>
<stop offset="1" stop-color="#B2CBFF"/>
</linearGradient>
<linearGradient id="paint13_linear_2777_9342" x1="19.8067" y1="13.2411" x2="19.8067" y2="16.9351" gradientUnits="userSpaceOnUse">
<stop stop-color="#3F3CED" stop-opacity="0"/>
<stop offset="0.2796" stop-color="#3C3DE4" stop-opacity="0.28"/>
<stop offset="0.7305" stop-color="#3541CC" stop-opacity="0.731"/>
<stop offset="1" stop-color="#2F43BB"/>
</linearGradient>
<linearGradient id="paint14_linear_2777_9342" x1="19.806" y1="13.2411" x2="19.806" y2="16.9351" gradientUnits="userSpaceOnUse">
<stop stop-color="#3F3CED" stop-opacity="0"/>
<stop offset="0.2796" stop-color="#3C3DE4" stop-opacity="0.28"/>
<stop offset="0.7305" stop-color="#3541CC" stop-opacity="0.731"/>
<stop offset="1" stop-color="#2F43BB"/>
</linearGradient>
<linearGradient id="paint15_linear_2777_9342" x1="19.7973" y1="13.833" x2="18.9214" y2="11.7151" gradientUnits="userSpaceOnUse">
<stop stop-color="white" stop-opacity="0"/>
<stop offset="1" stop-color="white"/>
</linearGradient>
<linearGradient id="paint16_linear_2777_9342" x1="19.8062" y1="11.5165" x2="19.8062" y2="13.713" gradientUnits="userSpaceOnUse">
<stop stop-color="#E4F2FF"/>
<stop offset="1" stop-color="#B2CBFF"/>
</linearGradient>
<linearGradient id="paint17_linear_2777_9342" x1="19.8067" y1="11.5483" x2="19.8067" y2="15.2423" gradientUnits="userSpaceOnUse">
<stop stop-color="#3F3CED" stop-opacity="0"/>
<stop offset="0.2796" stop-color="#3C3DE4" stop-opacity="0.28"/>
<stop offset="0.7305" stop-color="#3541CC" stop-opacity="0.731"/>
<stop offset="1" stop-color="#2F43BB"/>
</linearGradient>
<linearGradient id="paint18_linear_2777_9342" x1="19.806" y1="11.5483" x2="19.806" y2="15.2423" gradientUnits="userSpaceOnUse">
<stop stop-color="#3F3CED" stop-opacity="0"/>
<stop offset="0.2796" stop-color="#3C3DE4" stop-opacity="0.28"/>
<stop offset="0.7305" stop-color="#3541CC" stop-opacity="0.731"/>
<stop offset="1" stop-color="#2F43BB"/>
</linearGradient>
<linearGradient id="paint19_linear_2777_9342" x1="19.7973" y1="12.1388" x2="18.9215" y2="10.0209" gradientUnits="userSpaceOnUse">
<stop stop-color="white" stop-opacity="0"/>
<stop offset="1" stop-color="white"/>
</linearGradient>
<linearGradient id="paint20_linear_2777_9342" x1="19.8062" y1="9.82129" x2="19.8062" y2="12.0178" gradientUnits="userSpaceOnUse">
<stop stop-color="#E4F2FF"/>
<stop offset="1" stop-color="#B2CBFF"/>
</linearGradient>
<linearGradient id="paint21_linear_2777_9342" x1="19.8067" y1="9.85315" x2="19.8067" y2="13.5472" gradientUnits="userSpaceOnUse">
<stop stop-color="#3F3CED" stop-opacity="0"/>
<stop offset="0.2796" stop-color="#3C3DE4" stop-opacity="0.28"/>
<stop offset="0.7305" stop-color="#3541CC" stop-opacity="0.731"/>
<stop offset="1" stop-color="#2F43BB"/>
</linearGradient>
<linearGradient id="paint22_linear_2777_9342" x1="19.806" y1="9.85315" x2="19.806" y2="13.5472" gradientUnits="userSpaceOnUse">
<stop stop-color="#3F3CED" stop-opacity="0"/>
<stop offset="0.2796" stop-color="#3C3DE4" stop-opacity="0.28"/>
<stop offset="0.7305" stop-color="#3541CC" stop-opacity="0.731"/>
<stop offset="1" stop-color="#2F43BB"/>
</linearGradient>
<linearGradient id="paint23_linear_2777_9342" x1="19.7973" y1="10.4456" x2="18.9215" y2="8.32766" gradientUnits="userSpaceOnUse">
<stop stop-color="white" stop-opacity="0"/>
<stop offset="1" stop-color="white"/>
</linearGradient>
<linearGradient id="paint24_linear_2777_9342" x1="19.8062" y1="8.12781" x2="19.8062" y2="10.3243" gradientUnits="userSpaceOnUse">
<stop stop-color="#E4F2FF"/>
<stop offset="1" stop-color="#B2CBFF"/>
</linearGradient>
<linearGradient id="paint25_linear_2777_9342" x1="19.8067" y1="8.15906" x2="19.8067" y2="11.8531" gradientUnits="userSpaceOnUse">
<stop stop-color="#3F3CED" stop-opacity="0"/>
<stop offset="0.2796" stop-color="#3C3DE4" stop-opacity="0.28"/>
<stop offset="0.7305" stop-color="#3541CC" stop-opacity="0.731"/>
<stop offset="1" stop-color="#2F43BB"/>
</linearGradient>
<linearGradient id="paint26_linear_2777_9342" x1="19.806" y1="8.15963" x2="19.806" y2="11.8537" gradientUnits="userSpaceOnUse">
<stop stop-color="#3F3CED" stop-opacity="0"/>
<stop offset="0.2796" stop-color="#3C3DE4" stop-opacity="0.28"/>
<stop offset="0.7305" stop-color="#3541CC" stop-opacity="0.731"/>
<stop offset="1" stop-color="#2F43BB"/>
</linearGradient>
<linearGradient id="paint27_linear_2777_9342" x1="19.7973" y1="8.75154" x2="18.9215" y2="6.63357" gradientUnits="userSpaceOnUse">
<stop stop-color="white" stop-opacity="0"/>
<stop offset="1" stop-color="white"/>
</linearGradient>
<linearGradient id="paint28_linear_2777_9342" x1="19.8062" y1="6.43323" x2="19.8062" y2="8.62971" gradientUnits="userSpaceOnUse">
<stop stop-color="#E4F2FF"/>
<stop offset="1" stop-color="#B2CBFF"/>
</linearGradient>
<linearGradient id="paint29_linear_2777_9342" x1="19.8067" y1="6.46509" x2="19.8067" y2="10.1591" gradientUnits="userSpaceOnUse">
<stop stop-color="#3F3CED" stop-opacity="0"/>
<stop offset="0.2796" stop-color="#3C3DE4" stop-opacity="0.28"/>
<stop offset="0.7305" stop-color="#3541CC" stop-opacity="0.731"/>
<stop offset="1" stop-color="#2F43BB"/>
</linearGradient>
<linearGradient id="paint30_linear_2777_9342" x1="19.806" y1="6.46509" x2="19.806" y2="10.1591" gradientUnits="userSpaceOnUse">
<stop stop-color="#3F3CED" stop-opacity="0"/>
<stop offset="0.2796" stop-color="#3C3DE4" stop-opacity="0.28"/>
<stop offset="0.7305" stop-color="#3541CC" stop-opacity="0.731"/>
<stop offset="1" stop-color="#2F43BB"/>
</linearGradient>
<linearGradient id="paint31_linear_2777_9342" x1="19.7973" y1="7.05765" x2="18.9215" y2="4.93968" gradientUnits="userSpaceOnUse">
<stop stop-color="white" stop-opacity="0"/>
<stop offset="1" stop-color="white"/>
</linearGradient>
<radialGradient id="paint32_radial_2777_9342" cx="0" cy="0" r="1" gradientUnits="userSpaceOnUse" gradientTransform="translate(9.34522 9.74288) scale(15.886)">
<stop stop-color="#4AB272"/>
<stop offset="0.3386" stop-color="#47B071"/>
<stop offset="0.5502" stop-color="#3FA870"/>
<stop offset="0.727" stop-color="#309B6D"/>
<stop offset="0.8837" stop-color="#1C8869"/>
<stop offset="1" stop-color="#077565"/>
</radialGradient>
<linearGradient id="paint33_linear_2777_9342" x1="6.33542" y1="17.0936" x2="5.82653" y2="32.9549" gradientUnits="userSpaceOnUse">
<stop stop-color="#005A01" stop-opacity="0"/>
<stop offset="1" stop-color="#005A01"/>
</linearGradient>
<linearGradient id="paint34_linear_2777_9342" x1="10.9682" y1="20.2174" x2="13.2303" y2="28.8506" gradientUnits="userSpaceOnUse">
<stop stop-color="#005A01" stop-opacity="0"/>
<stop offset="1" stop-color="#005A01"/>
</linearGradient>
<linearGradient id="paint35_linear_2777_9342" x1="17.9669" y1="20.048" x2="17.1375" y2="30.6794" gradientUnits="userSpaceOnUse">
<stop stop-color="#005A01" stop-opacity="0"/>
<stop offset="1" stop-color="#005A01"/>
</linearGradient>
<linearGradient id="paint36_linear_2777_9342" x1="11.0683" y1="13.8401" x2="0.437011" y2="-5.16049" gradientUnits="userSpaceOnUse">
<stop stop-color="#91F27F" stop-opacity="0"/>
<stop offset="1" stop-color="#FFED82"/>
</linearGradient>
<linearGradient id="paint37_linear_2777_9342" x1="18.4839" y1="17.5196" x2="5.01209" y2="9.8969" gradientUnits="userSpaceOnUse">
<stop stop-color="#005A01" stop-opacity="0"/>
<stop offset="1" stop-color="#005A01"/>
</linearGradient>
<linearGradient id="paint38_linear_2777_9342" x1="10.6278" y1="11.5555" x2="18.007" y2="17.917" gradientUnits="userSpaceOnUse">
<stop stop-color="#FFC738"/>
<stop offset="0.1876" stop-color="#FDBF3C"/>
<stop offset="0.4837" stop-color="#F7A848"/>
<stop offset="0.8493" stop-color="#ED835B"/>
<stop offset="1" stop-color="#E97264"/>
</linearGradient>
<linearGradient id="paint39_linear_2777_9342" x1="11.5513" y1="18.9673" x2="6.57496" y2="18.5526" gradientUnits="userSpaceOnUse">
<stop stop-color="#005A01" stop-opacity="0"/>
<stop offset="1" stop-color="#005A01"/>
</linearGradient>
<linearGradient id="paint40_linear_2777_9342" x1="4.19341" y1="22.3405" x2="4.19341" y2="24.5369" gradientUnits="userSpaceOnUse">
<stop stop-color="#FFD945"/>
<stop offset="0.3043" stop-color="#FFCD3E"/>
<stop offset="0.8558" stop-color="#FFAD2B"/>
<stop offset="1" stop-color="#FFA325"/>
</linearGradient>
<linearGradient id="paint41_linear_2777_9342" x1="4.19346" y1="22.3723" x2="4.19346" y2="26.0663" gradientUnits="userSpaceOnUse">
<stop stop-color="#E87264" stop-opacity="0"/>
<stop offset="1" stop-color="#FF7044"/>
</linearGradient>
<linearGradient id="paint42_linear_2777_9342" x1="4.19395" y1="22.3723" x2="4.19395" y2="26.0663" gradientUnits="userSpaceOnUse">
<stop stop-color="#E87264" stop-opacity="0"/>
<stop offset="1" stop-color="#FF7044"/>
</linearGradient>
<linearGradient id="paint43_linear_2777_9342" x1="4.18475" y1="22.9652" x2="3.30893" y2="20.8473" gradientUnits="userSpaceOnUse">
<stop stop-color="#FFD945" stop-opacity="0"/>
<stop offset="1" stop-color="#FBED21"/>
</linearGradient>
<linearGradient id="paint44_linear_2777_9342" x1="18.045" y1="22.3405" x2="18.045" y2="24.5369" gradientUnits="userSpaceOnUse">
<stop stop-color="#FFD945"/>
<stop offset="0.3043" stop-color="#FFCD3E"/>
<stop offset="0.8558" stop-color="#FFAD2B"/>
<stop offset="1" stop-color="#FFA325"/>
</linearGradient>
<linearGradient id="paint45_linear_2777_9342" x1="18.0455" y1="22.3723" x2="18.0455" y2="26.0663" gradientUnits="userSpaceOnUse">
<stop stop-color="#E87264" stop-opacity="0"/>
<stop offset="1" stop-color="#FF7044"/>
</linearGradient>
<linearGradient id="paint46_linear_2777_9342" x1="18.0455" y1="22.3723" x2="18.0455" y2="26.0663" gradientUnits="userSpaceOnUse">
<stop stop-color="#E87264" stop-opacity="0"/>
<stop offset="1" stop-color="#FF7044"/>
</linearGradient>
<linearGradient id="paint47_linear_2777_9342" x1="18.0358" y1="22.9652" x2="17.16" y2="20.8473" gradientUnits="userSpaceOnUse">
<stop stop-color="#FFD945" stop-opacity="0"/>
<stop offset="1" stop-color="#FBED21"/>
</linearGradient>
<linearGradient id="paint48_linear_2777_9342" x1="4.19341" y1="20.6476" x2="4.19341" y2="22.8441" gradientUnits="userSpaceOnUse">
<stop stop-color="#FFD945"/>
<stop offset="0.3043" stop-color="#FFCD3E"/>
<stop offset="0.8558" stop-color="#FFAD2B"/>
<stop offset="1" stop-color="#FFA325"/>
</linearGradient>
<linearGradient id="paint49_linear_2777_9342" x1="4.19346" y1="20.6786" x2="4.19346" y2="24.3726" gradientUnits="userSpaceOnUse">
<stop stop-color="#E87264" stop-opacity="0"/>
<stop offset="1" stop-color="#FF7044"/>
</linearGradient>
<linearGradient id="paint50_linear_2777_9342" x1="4.19395" y1="20.6794" x2="4.19395" y2="24.3734" gradientUnits="userSpaceOnUse">
<stop stop-color="#E87264" stop-opacity="0"/>
<stop offset="1" stop-color="#FF7044"/>
</linearGradient>
<linearGradient id="paint51_linear_2777_9342" x1="4.18475" y1="21.2701" x2="3.30893" y2="19.1521" gradientUnits="userSpaceOnUse">
<stop stop-color="#FFD945" stop-opacity="0"/>
<stop offset="1" stop-color="#FBED21"/>
</linearGradient>
<linearGradient id="paint52_linear_2777_9342" x1="18.045" y1="20.6476" x2="18.045" y2="22.8441" gradientUnits="userSpaceOnUse">
<stop stop-color="#FFD945"/>
<stop offset="0.3043" stop-color="#FFCD3E"/>
<stop offset="0.8558" stop-color="#FFAD2B"/>
<stop offset="1" stop-color="#FFA325"/>
</linearGradient>
<linearGradient id="paint53_linear_2777_9342" x1="18.0455" y1="20.6786" x2="18.0455" y2="24.3726" gradientUnits="userSpaceOnUse">
<stop stop-color="#E87264" stop-opacity="0"/>
<stop offset="1" stop-color="#FF7044"/>
</linearGradient>
<linearGradient id="paint54_linear_2777_9342" x1="18.0455" y1="20.6794" x2="18.0455" y2="24.3734" gradientUnits="userSpaceOnUse">
<stop stop-color="#E87264" stop-opacity="0"/>
<stop offset="1" stop-color="#FF7044"/>
</linearGradient>
<linearGradient id="paint55_linear_2777_9342" x1="18.0358" y1="21.2701" x2="17.16" y2="19.1521" gradientUnits="userSpaceOnUse">
<stop stop-color="#FFD945" stop-opacity="0"/>
<stop offset="1" stop-color="#FBED21"/>
</linearGradient>
<linearGradient id="paint56_linear_2777_9342" x1="4.19341" y1="18.9529" x2="4.19341" y2="21.1494" gradientUnits="userSpaceOnUse">
<stop stop-color="#FFD945"/>
<stop offset="0.3043" stop-color="#FFCD3E"/>
<stop offset="0.8558" stop-color="#FFAD2B"/>
<stop offset="1" stop-color="#FFA325"/>
</linearGradient>
<linearGradient id="paint57_linear_2777_9342" x1="4.19346" y1="18.9847" x2="4.19346" y2="22.6787" gradientUnits="userSpaceOnUse">
<stop stop-color="#E87264" stop-opacity="0"/>
<stop offset="1" stop-color="#FF7044"/>
</linearGradient>
<linearGradient id="paint58_linear_2777_9342" x1="4.19395" y1="18.9847" x2="4.19395" y2="22.6787" gradientUnits="userSpaceOnUse">
<stop stop-color="#E87264" stop-opacity="0"/>
<stop offset="1" stop-color="#FF7044"/>
</linearGradient>
<linearGradient id="paint59_linear_2777_9342" x1="4.18475" y1="19.575" x2="3.30893" y2="17.457" gradientUnits="userSpaceOnUse">
<stop stop-color="#FFD945" stop-opacity="0"/>
<stop offset="1" stop-color="#FBED21"/>
</linearGradient>
<linearGradient id="paint60_linear_2777_9342" x1="4.19341" y1="17.2577" x2="4.19341" y2="19.4542" gradientUnits="userSpaceOnUse">
<stop stop-color="#FFD945"/>
<stop offset="0.3043" stop-color="#FFCD3E"/>
<stop offset="0.8558" stop-color="#FFAD2B"/>
<stop offset="1" stop-color="#FFA325"/>
</linearGradient>
<linearGradient id="paint61_linear_2777_9342" x1="4.19346" y1="17.2913" x2="4.19346" y2="20.9854" gradientUnits="userSpaceOnUse">
<stop stop-color="#E87264" stop-opacity="0"/>
<stop offset="1" stop-color="#FF7044"/>
</linearGradient>
<linearGradient id="paint62_linear_2777_9342" x1="4.19396" y1="17.2896" x2="4.19396" y2="20.9836" gradientUnits="userSpaceOnUse">
<stop stop-color="#E87264" stop-opacity="0"/>
<stop offset="1" stop-color="#FF7044"/>
</linearGradient>
<linearGradient id="paint63_linear_2777_9342" x1="4.18475" y1="17.8831" x2="3.30893" y2="15.7652" gradientUnits="userSpaceOnUse">
<stop stop-color="#FFD945" stop-opacity="0"/>
<stop offset="1" stop-color="#FBED21"/>
</linearGradient>
<linearGradient id="paint64_linear_2777_9342" x1="4.19341" y1="15.5648" x2="4.19341" y2="17.7613" gradientUnits="userSpaceOnUse">
<stop stop-color="#FFD945"/>
<stop offset="0.3043" stop-color="#FFCD3E"/>
<stop offset="0.8558" stop-color="#FFAD2B"/>
<stop offset="1" stop-color="#FFA325"/>
</linearGradient>
<linearGradient id="paint65_linear_2777_9342" x1="4.19346" y1="15.5966" x2="4.19346" y2="19.2907" gradientUnits="userSpaceOnUse">
<stop stop-color="#E87264" stop-opacity="0"/>
<stop offset="1" stop-color="#FF7044"/>
</linearGradient>
<linearGradient id="paint66_linear_2777_9342" x1="4.19396" y1="15.5966" x2="4.19396" y2="19.2907" gradientUnits="userSpaceOnUse">
<stop stop-color="#E87264" stop-opacity="0"/>
<stop offset="1" stop-color="#FF7044"/>
</linearGradient>
<linearGradient id="paint67_linear_2777_9342" x1="4.18475" y1="16.1879" x2="3.30893" y2="14.07" gradientUnits="userSpaceOnUse">
<stop stop-color="#FFD945" stop-opacity="0"/>
<stop offset="1" stop-color="#FBED21"/>
</linearGradient>
<linearGradient id="paint68_linear_2777_9342" x1="4.19341" y1="13.8696" x2="4.19341" y2="16.0661" gradientUnits="userSpaceOnUse">
<stop stop-color="#FFD945"/>
<stop offset="0.3043" stop-color="#FFCD3E"/>
<stop offset="0.8558" stop-color="#FFAD2B"/>
<stop offset="1" stop-color="#FFA325"/>
</linearGradient>
<linearGradient id="paint69_linear_2777_9342" x1="4.19346" y1="13.9032" x2="4.19346" y2="17.5972" gradientUnits="userSpaceOnUse">
<stop stop-color="#E87264" stop-opacity="0"/>
<stop offset="1" stop-color="#FF7044"/>
</linearGradient>
<linearGradient id="paint70_linear_2777_9342" x1="4.19396" y1="13.9014" x2="4.19396" y2="17.5955" gradientUnits="userSpaceOnUse">
<stop stop-color="#E87264" stop-opacity="0"/>
<stop offset="1" stop-color="#FF7044"/>
</linearGradient>
<linearGradient id="paint71_linear_2777_9342" x1="4.18475" y1="14.4941" x2="3.30893" y2="12.3761" gradientUnits="userSpaceOnUse">
<stop stop-color="#FFD945" stop-opacity="0"/>
<stop offset="1" stop-color="#FBED21"/>
</linearGradient>
<linearGradient id="paint72_linear_2777_9342" x1="1.70963" y1="8.72732" x2="3.93257" y2="11.7037" gradientUnits="userSpaceOnUse">
<stop stop-color="#FFD945"/>
<stop offset="0.3043" stop-color="#FFCD3E"/>
<stop offset="0.8558" stop-color="#FFAD2B"/>
<stop offset="1" stop-color="#FFA325"/>
</linearGradient>
<linearGradient id="paint73_linear_2777_9342" x1="11.3202" y1="-0.715153" x2="13.8084" y2="4.54395" gradientUnits="userSpaceOnUse">
<stop stop-color="#4AB272"/>
<stop offset="0.3386" stop-color="#47B071"/>
<stop offset="0.5502" stop-color="#3FA870"/>
<stop offset="0.727" stop-color="#309B6D"/>
<stop offset="0.8837" stop-color="#1C8869"/>
<stop offset="1" stop-color="#077565"/>
</linearGradient>
<linearGradient id="paint74_linear_2777_9342" x1="12.1381" y1="2.06094" x2="15.4933" y2="7.26347" gradientUnits="userSpaceOnUse">
<stop stop-color="#005A01" stop-opacity="0"/>
<stop offset="1" stop-color="#005A01"/>
</linearGradient>
<linearGradient id="paint75_linear_2777_9342" x1="12.3018" y1="0.176191" x2="12.4715" y2="1.84438" gradientUnits="userSpaceOnUse">
<stop stop-color="#005A01" stop-opacity="0"/>
<stop offset="1" stop-color="#005A01"/>
</linearGradient>
<linearGradient id="paint76_linear_2777_9342" x1="11.5659" y1="2.22739" x2="5.14747" y2="2.11431" gradientUnits="userSpaceOnUse">
<stop stop-color="#91F27F" stop-opacity="0"/>
<stop offset="1" stop-color="#FFED82"/>
</linearGradient>
<linearGradient id="paint77_linear_2777_9342" x1="12.1723" y1="4.12505" x2="12.1723" y2="4.92477" gradientUnits="userSpaceOnUse">
<stop stop-color="#FFC738"/>
<stop offset="0.1876" stop-color="#FDBF3C"/>
<stop offset="0.4837" stop-color="#F7A848"/>
<stop offset="0.8493" stop-color="#ED835B"/>
<stop offset="1" stop-color="#E97264"/>
</linearGradient>
<linearGradient id="paint78_linear_2777_9342" x1="18.8768" y1="3.81575" x2="20.4488" y2="5.92051" gradientUnits="userSpaceOnUse">
<stop stop-color="#FFD945"/>
<stop offset="0.3043" stop-color="#FFCD3E"/>
<stop offset="0.8558" stop-color="#FFAD2B"/>
<stop offset="1" stop-color="#FFA325"/>
</linearGradient>
<linearGradient id="paint79_linear_2777_9342" x1="5.30548" y1="2.65324" x2="6.87747" y2="4.75799" gradientUnits="userSpaceOnUse">
<stop stop-color="#FFD945"/>
<stop offset="0.3043" stop-color="#FFCD3E"/>
<stop offset="0.8558" stop-color="#FFAD2B"/>
<stop offset="1" stop-color="#FFA325"/>
</linearGradient>
<clipPath id="clip0_2777_9342">
<rect width="24" height="24" fill="white"/>
</clipPath>
</defs>
</svg>
