<svg width="112" height="50" viewBox="0 0 112 50" fill="none" xmlns="http://www.w3.org/2000/svg">
<path fill-rule="evenodd" clip-rule="evenodd" d="M23.7666 27.396L23.7672 28.8412V29.2005C23.7684 30.533 23.7696 32.0445 23.7666 32.4002C23.7666 32.726 23.6087 32.8831 23.2882 32.8886C22.652 32.8941 22.0104 32.8941 21.3743 32.8886C21.0477 32.8886 20.9014 32.7315 20.9014 32.4002V17.5339C20.9014 17.2136 21.0423 17.0735 21.3628 17.0735C21.9113 17.0735 22.4597 17.0711 23.0076 17.0686H23.0095C24.3181 17.0625 25.6267 17.0565 26.9353 17.0845C29.6082 17.1411 31.596 19.1209 31.7139 21.7859C31.7756 23.2049 31.5059 24.524 30.5831 25.6458C29.6481 26.7846 28.4042 27.3345 26.9468 27.3905C26.1438 27.424 24.5098 27.4045 23.951 27.3978L23.7666 27.396ZM23.7774 25.0343L24.6585 25.0331C25.233 25.0319 25.7984 25.0307 26.3669 25.0343C27.0926 25.0404 27.684 24.7591 28.1339 24.2043C28.8318 23.3456 29.012 22.359 28.7308 21.3036C28.4103 20.1026 27.4983 19.4297 26.2599 19.4297H23.7835C23.7774 21.3091 23.7774 23.1549 23.7774 25.0343ZM41.4889 32.3667C41.6352 32.726 41.8659 32.9276 42.2819 32.8941C42.5414 32.8715 43.633 32.8886 43.915 32.8941C44.4438 32.8941 44.6126 32.6413 44.3934 32.159C42.1668 27.2651 39.9414 22.3693 37.7176 17.4718C37.5943 17.1971 37.425 17.096 37.1323 17.1015C36.8511 17.1076 36.7271 17.2641 36.6201 17.4943C35.4749 19.9919 34.3284 22.4888 33.1804 24.985L33.0491 25.2712L33.0413 25.2883L32.8393 25.7286C31.4351 28.7845 30.1664 31.5457 29.8767 32.1821C29.6687 32.6304 29.8435 32.8886 30.3327 32.8886H31.9655C32.4553 32.8886 32.6125 32.7875 32.7982 32.3387L32.9584 31.9574L33.0473 31.7455C33.2753 31.2047 33.5027 30.6639 33.7216 30.117C33.8002 29.9209 33.8957 29.8369 34.1268 29.8369C36.074 29.8478 38.0152 29.8424 39.9623 29.8369H40.15C40.3574 29.8369 40.4643 29.8868 40.5428 30.089C40.7502 30.6091 40.9679 31.1268 41.1856 31.6438L41.1919 31.6572L41.2081 31.6968L41.2231 31.7327L41.4893 32.3661L41.4889 32.3667ZM34.9371 27.452H39.3389C38.595 25.8246 37.8538 24.196 37.1153 22.5661C36.3855 24.193 35.6595 25.8217 34.9371 27.452ZM52.6829 17.4383C51.5456 19.1232 50.4031 20.8044 49.2551 22.482C49.22 22.4333 48.8095 21.831 48.2621 21.0295C47.441 19.8256 46.6184 18.6228 45.7938 17.4212C45.7038 17.2921 45.5351 17.1295 45.3947 17.124C44.6253 17.0949 43.8555 17.0911 43.0856 17.1125C42.7761 17.1186 42.6191 17.4157 42.7422 17.7014C42.7678 17.7665 44.1433 19.8298 45.5386 21.9217L45.5441 21.9297C46.3131 23.0831 47.0885 24.2451 47.6449 25.0843C47.7356 25.2231 47.7837 25.3851 47.7857 25.5501C47.7893 27.8114 47.7912 30.0726 47.7912 32.3332C47.7912 32.7485 47.9261 32.8886 48.3426 32.8886H50.0596C50.5325 32.8886 50.6618 32.7595 50.6618 32.2936C50.6638 30.0811 50.6618 27.8674 50.6563 25.6513C50.65 25.4108 50.721 25.1746 50.859 24.9783C52.4649 22.6205 54.0672 20.2605 55.6667 17.8981C55.7906 17.7184 55.8915 17.5449 55.7791 17.3256C55.6667 17.1015 55.4526 17.1015 55.2444 17.1015H54.9403L54.6946 17.1033C54.2399 17.1058 53.784 17.1076 53.3305 17.096C53.0379 17.0899 52.8466 17.1916 52.6833 17.4383H52.6829ZM97.0969 30.3582C97.0842 31.7589 95.9394 32.8868 94.5359 32.8807C93.1323 32.8746 91.9981 31.737 91.9973 30.3357C92.0064 29.6609 92.2789 29.0168 92.7565 28.5432C93.2337 28.0696 93.8773 27.8047 94.5477 27.8059C94.8825 27.8044 95.2149 27.8695 95.5249 27.9974C95.8353 28.1253 96.1173 28.3135 96.3551 28.5513C96.5917 28.7877 96.7794 29.0692 96.9068 29.3795C97.0342 29.6897 97.0988 30.0225 97.0969 30.3582ZM96.7873 30.3807C96.7475 31.6261 95.7462 32.5975 94.513 32.5744C94.218 32.5707 93.9266 32.5083 93.6556 32.3908C93.3843 32.2734 93.139 32.1031 92.9335 31.8898C92.7289 31.6776 92.5687 31.4263 92.4623 31.1507C92.3554 30.8751 92.3049 30.5808 92.3132 30.2851C92.3353 29.0677 93.3598 28.0976 94.6092 28.1201C95.8191 28.142 96.8212 29.1798 96.7873 30.3807ZM94.9637 30.5604L95.2055 30.9057C95.3506 31.1115 95.4922 31.3137 95.6338 31.5195C95.3802 31.6207 95.2394 31.5421 95.1384 31.346C95.0994 31.2731 95.0552 31.2032 95.0059 31.1371C94.9677 31.0823 94.929 31.0275 94.8963 30.9696C94.6991 30.6328 94.4179 30.5214 94.0121 30.6225V31.5421C93.9183 31.5467 93.8244 31.5542 93.7309 31.5646V29.3936C93.8528 29.3936 93.9735 29.3917 94.0934 29.3905C94.3682 29.3835 94.6435 29.3864 94.9184 29.399C95.2449 29.4161 95.4251 29.6122 95.4587 29.9045C95.4934 30.1907 95.3526 30.4088 95.0481 30.5263C95.0217 30.5416 94.9933 30.553 94.9637 30.5604ZM94.2693 30.3211C94.1856 30.3199 94.1016 30.3193 94.0176 30.3192V29.6292C94.0993 29.6292 94.1805 29.628 94.2602 29.6274C94.4562 29.6249 94.6467 29.6225 94.834 29.6347C95.0375 29.6511 95.1724 29.7748 95.1668 29.9824C95.1605 30.1737 95.0481 30.3022 94.8509 30.3138C94.6601 30.3259 94.4688 30.3235 94.2693 30.3211Z" fill="#262626"/>
<path fill-rule="evenodd" clip-rule="evenodd" d="M87.6627 26.5715C87.7408 26.7232 87.8079 26.8578 87.8749 26.9875C88.7673 28.6805 89.6598 30.3761 90.5522 32.0728C90.6079 32.1605 90.6508 32.2555 90.6796 32.3547C90.7471 32.6136 90.596 32.839 90.3342 32.8444C89.5537 32.8554 88.7725 32.8499 87.992 32.8499C87.7582 32.8499 87.6856 32.6696 87.6075 32.5009C86.732 30.6836 85.851 28.8663 84.9866 27.0441C84.8805 26.8188 84.7578 26.7232 84.5015 26.7286C83.9064 26.7455 83.3113 26.7455 82.7166 26.7286C82.4713 26.7225 82.3991 26.8078 82.3991 27.0551C82.405 28.7822 82.405 30.504 82.405 32.2311C82.405 32.7707 82.3266 32.8499 81.7969 32.8499H80.1796C79.7502 32.8499 79.6334 32.7372 79.6334 32.3042V17.5921C79.6334 17.2036 79.7616 17.0684 80.1461 17.0684C82.1822 17.0684 84.2168 17.0574 86.2521 17.0684C88.5272 17.0805 90.3839 18.5824 90.7857 20.7931C91.2152 23.1451 90.2502 25.3163 87.9861 26.4138C87.8761 26.4617 87.7684 26.5143 87.6627 26.5715ZM82.4492 24.4393C82.5722 24.4393 84.869 24.4332 85.9287 24.4393C86.34 24.4418 86.7403 24.3051 87.0668 24.0508C87.9029 23.4204 88.2933 22.2164 88.0031 21.1537C87.6962 20.0227 86.8831 19.3924 85.728 19.3924H82.4492V24.4393ZM60.1584 19.3924V23.8199H65.3664C65.8073 23.8199 65.9355 23.9497 65.9355 24.3827V25.6202C65.9355 26.0088 65.8018 26.144 65.4169 26.144H60.164V30.5716H66.4154C66.8946 30.5716 67.0007 30.6781 67.0007 31.1623V32.3438C67.0007 32.7653 66.8725 32.895 66.4541 32.895C63.8166 32.895 58.0505 32.9011 57.8112 32.895C57.5355 32.8901 57.3943 32.7835 57.3541 32.5503C57.3482 32.5143 57.3427 22.5654 57.3427 17.7267C57.3427 17.1652 57.4373 17.0751 57.9835 17.0751H66.3705C66.9005 17.0751 66.9952 17.1707 66.9952 17.7163V18.8412C66.9952 19.2797 66.8776 19.3978 66.432 19.3978C64.4633 19.3918 60.3036 19.3918 60.1584 19.3918V19.3924ZM68.5442 24.9673V17.6262C68.5442 17.1652 68.6448 17.0635 69.0963 17.0635H77.6281C78.0631 17.0635 78.1743 17.1768 78.1743 17.6043V18.8698C78.1743 19.2693 78.0631 19.3875 77.6612 19.3875H71.7224C71.3154 19.3875 71.3154 19.3875 71.3154 19.7925C71.3154 21.03 71.3214 22.2676 71.3095 23.5057C71.3095 23.753 71.3825 23.8205 71.6282 23.8205C73.2336 23.8096 74.8454 23.8145 76.4513 23.8145C77.0369 23.8145 77.115 23.8936 77.115 24.4673V25.6488C77.115 26.0039 76.9864 26.1385 76.6244 26.1385C75.7765 26.1446 72.4362 26.1446 71.6053 26.1385C71.3994 26.1385 71.3103 26.1781 71.3103 26.4144C71.321 27.7086 71.321 29.0027 71.3103 30.2963C71.3103 30.5265 71.3939 30.5716 71.6053 30.5716C73.5965 30.5667 75.5813 30.5667 77.5725 30.5667C78.0966 30.5667 78.1743 30.6453 78.1743 31.1855V32.3669C78.1743 32.7659 78.0571 32.8901 77.6663 32.8901H69.1354C68.6389 32.8901 68.5502 32.7999 68.5502 32.3048C68.5442 29.8626 68.5423 27.4174 68.5442 24.9686V24.9673Z" fill="#65B3DE"/>
</svg>
