<svg width="64" height="39" viewBox="0 0 64 39" fill="none" xmlns="http://www.w3.org/2000/svg">
<g opacity="0.8">
<path d="M44.6353 0.357314L40.2866 4.70597C40.0578 4.93475 39.7475 5.06327 39.4239 5.06327C39.1003 5.06327 38.79 4.93475 38.5612 4.70597L34.212 0.357314C33.9832 0.128541 33.6729 1.23122e-05 33.3494 0H1.22017C0.896581 7.79627e-05 0.586273 0.128656 0.357464 0.357464C0.128656 0.586273 7.79627e-05 0.896582 0 1.22017V36.8576C7.79627e-05 37.1812 0.128656 37.4915 0.357464 37.7203C0.586273 37.9491 0.896581 38.0777 1.22017 38.0777H33.457C33.7806 38.0777 34.0908 37.9492 34.3196 37.7204L38.5612 33.4785C38.79 33.2497 39.1003 33.1212 39.4239 33.1212C39.7475 33.1212 40.0578 33.2497 40.2866 33.4785L44.5282 37.7201C44.757 37.9489 45.0673 38.0774 45.3908 38.0774H59.9104C60.234 38.0774 60.5443 37.9488 60.7731 37.72C61.0019 37.4912 61.1305 37.1809 61.1306 36.8573V1.22017C61.1305 0.896582 61.0019 0.586273 60.7731 0.357464C60.5443 0.128656 60.234 7.79627e-05 59.9104 0H45.4978C45.1743 1.23122e-05 44.864 0.128541 44.6353 0.357314Z" fill="#FFA91A"/>
<path d="M59.9104 0H58.1897V33.9167C58.1896 34.2403 58.061 34.5506 57.8322 34.7794C57.6034 35.0082 57.2931 35.1368 56.9695 35.1369H41.9446L44.5282 37.7204C44.757 37.9492 45.0672 38.0777 45.3907 38.0777H59.9104C60.234 38.0777 60.5443 37.9491 60.7731 37.7203C61.0019 37.4915 61.1305 37.1812 61.1306 36.8576V1.22017C61.1305 0.896582 61.0019 0.586273 60.7731 0.357464C60.5443 0.128656 60.234 7.79627e-05 59.9104 0Z" fill="#F79219"/>
<path d="M1.22017 38.0777H33.4571C33.7806 38.0777 34.0909 37.9492 34.3196 37.7204L36.9032 35.1368H0V36.8575C7.79627e-05 37.1811 0.128656 37.4914 0.357464 37.7202C0.586273 37.9491 0.896581 38.0776 1.22017 38.0777Z" fill="#F79219"/>
<path d="M1.76511 33.9668C1.60912 33.9668 1.45952 33.9048 1.34921 33.7945C1.23891 33.6842 1.17694 33.5346 1.17694 33.3786V1.76432C1.17694 1.60833 1.23891 1.45872 1.34921 1.34842C1.45952 1.23812 1.60912 1.17615 1.76511 1.17615H28.9655C29.1215 1.17615 29.2711 1.23812 29.3814 1.34842C29.4917 1.45872 29.5536 1.60833 29.5536 1.76432C29.5536 1.92031 29.4917 2.06992 29.3814 2.18022C29.2711 2.29053 29.1215 2.35249 28.9655 2.35249H2.35329V33.3786C2.35329 33.4559 2.33807 33.5323 2.30852 33.6037C2.27896 33.6751 2.23563 33.7399 2.18102 33.7945C2.1264 33.8491 2.06156 33.8925 1.9902 33.922C1.91884 33.9516 1.84235 33.9668 1.76511 33.9668ZM31.3182 2.35249C31.2018 2.35249 31.0881 2.318 30.9914 2.25337C30.8947 2.18874 30.8193 2.09688 30.7748 1.9894C30.7302 1.88193 30.7186 1.76367 30.7413 1.64957C30.764 1.53548 30.82 1.43068 30.9023 1.34842C30.9845 1.26616 31.0893 1.21014 31.2034 1.18745C31.3175 1.16475 31.4358 1.1764 31.5432 1.22092C31.6507 1.26544 31.7426 1.34082 31.8072 1.43755C31.8718 1.53427 31.9063 1.64799 31.9063 1.76432C31.9059 1.92017 31.8438 2.0695 31.7335 2.17971C31.6233 2.28991 31.474 2.35203 31.3182 2.35249Z" fill="#FFC91D"/>
<path d="M38.9925 8.42265L37.0997 10.3154C36.8615 10.5536 36.8615 10.9398 37.0997 11.178L38.9925 13.0708C39.2306 13.309 39.6168 13.309 39.855 13.0708L41.7478 11.178C41.986 10.9398 41.986 10.5536 41.7478 10.3154L39.855 8.42265C39.6168 8.18445 39.2306 8.18445 38.9925 8.42265Z" fill="white"/>
<path d="M38.9926 16.715L37.0998 18.6078C36.8616 18.846 36.8616 19.2322 37.0998 19.4704L38.9926 21.3631C39.2308 21.6013 39.617 21.6013 39.8552 21.3631L41.7479 19.4703C41.9861 19.2322 41.9861 18.846 41.7479 18.6078L39.8552 16.715C39.617 16.4768 39.2308 16.4768 38.9926 16.715Z" fill="white"/>
<path d="M38.9925 25.0069L37.0997 26.8996C36.8615 27.1378 36.8615 27.524 37.0997 27.7622L38.9925 29.655C39.2306 29.8932 39.6168 29.8932 39.855 29.655L41.7478 27.7622C41.986 27.524 41.986 27.1378 41.7478 26.8996L39.855 25.0069C39.6168 24.7687 39.2306 24.7687 38.9925 25.0069Z" fill="white"/>
<path d="M59.9104 0H59.6601V35.3871C59.6601 35.7107 59.5315 36.021 59.3027 36.2498C59.0739 36.4787 58.7636 36.6072 58.44 36.6073H43.4151L44.5282 37.7204C44.757 37.9492 45.0672 38.0777 45.3908 38.0777H59.9104C60.234 38.0777 60.5443 37.9491 60.7731 37.7203C61.0019 37.4915 61.1305 37.1812 61.1306 36.8576V1.22017C61.1305 0.896582 61.0019 0.586273 60.7731 0.357464C60.5443 0.128656 60.234 7.79627e-05 59.9104 0Z" fill="#EF7816"/>
<path d="M20.349 16.9215H19.6209V9.77225H20.349C21.2967 9.77326 22.2052 10.1502 22.8753 10.8203C23.5454 11.4904 23.9223 12.3989 23.9234 13.3466C23.9234 13.6566 24.0465 13.954 24.2657 14.1732C24.485 14.3924 24.7823 14.5156 25.0923 14.5156C25.4024 14.5156 25.6997 14.3924 25.9189 14.1732C26.1382 13.954 26.2613 13.6566 26.2613 13.3466C26.2592 11.7795 25.6358 10.2772 24.5277 9.16909C23.4196 8.06099 21.9173 7.43754 20.3502 7.43544H19.6209V6.70611C19.6209 6.39607 19.4977 6.09873 19.2785 5.8795C19.0592 5.66027 18.7619 5.53711 18.4519 5.53711C18.1418 5.53711 17.8445 5.66027 17.6253 5.8795C17.406 6.09873 17.2829 6.39607 17.2829 6.70611V7.43426H16.5544C14.9864 7.43426 13.4826 8.05716 12.3738 9.16594C11.265 10.2747 10.6421 11.7785 10.6421 13.3466C10.6421 14.9146 11.265 16.4184 12.3738 17.5272C13.4826 18.636 14.9864 19.2589 16.5544 19.2589H17.2829V28.3056H16.5544C15.6066 28.3048 14.6978 27.928 14.0274 27.2579C13.3571 26.5878 12.98 25.6791 12.9789 24.7313C12.9789 24.4212 12.8558 24.1239 12.6365 23.9047C12.4173 23.6854 12.12 23.5623 11.8099 23.5623C11.4999 23.5623 11.2025 23.6854 10.9833 23.9047C10.7641 24.1239 10.6409 24.4212 10.6409 24.7313C10.6431 26.2986 11.2668 27.8011 12.3752 28.9092C13.4836 30.0173 14.9862 30.6406 16.5535 30.6424H17.282V31.3706C17.282 31.6806 17.4052 31.9779 17.6244 32.1972C17.8436 32.4164 18.141 32.5395 18.451 32.5395C18.761 32.5395 19.0584 32.4164 19.2776 32.1972C19.4968 31.9779 19.62 31.6806 19.62 31.3706V30.6436H20.3481C21.9152 30.6415 23.4175 30.018 24.5256 28.9099C25.6337 27.8018 26.2572 26.2995 26.2593 24.7324V22.8326C26.2572 21.2657 25.6338 19.7635 24.5259 18.6555C23.418 17.5474 21.916 16.9238 20.349 16.9215ZM16.5544 9.77225H17.2829V16.9215H16.5544C15.6065 16.9215 14.6973 16.5449 14.027 15.8746C13.3567 15.2043 12.9801 14.2951 12.9801 13.3472C12.9801 12.3992 13.3567 11.4901 14.027 10.8197C14.6973 10.1494 15.6065 9.77284 16.5544 9.77284V9.77225ZM23.9234 22.8326V24.7307C23.9225 25.6784 23.5457 26.5871 22.8755 27.2574C22.2054 27.9276 21.2968 28.3046 20.349 28.3056H19.6209V19.2589H20.349C21.2966 19.2599 22.205 19.6367 22.8751 20.3067C23.5452 20.9767 23.9222 21.8851 23.9234 22.8326Z" fill="white"/>
<path d="M56.5149 26.524C60.6488 26.524 64 23.1728 64 19.0389C64 14.905 60.6488 11.5538 56.5149 11.5538C52.381 11.5538 49.0298 14.905 49.0298 19.0389C49.0298 23.1728 52.381 26.524 56.5149 26.524Z" fill="#E63950"/>
<path d="M61.0212 13.0621C62.1077 14.5035 62.6368 16.2889 62.511 18.0895C62.3852 19.8901 61.613 21.5846 60.3367 22.8609C59.0604 24.1372 57.3658 24.9093 55.5652 25.0351C53.7646 25.1608 51.9792 24.6317 50.5379 23.5451C51.1826 24.4 52.0032 25.1065 52.9443 25.6171C53.8854 26.1277 54.9251 26.4304 55.9932 26.5049C57.0613 26.5794 58.133 26.4238 59.1358 26.0487C60.1387 25.6737 61.0494 25.0878 61.8065 24.3308C62.5636 23.5737 63.1495 22.663 63.5246 21.6601C63.8996 20.6573 64.0552 19.5857 63.9808 18.5176C63.9064 17.4495 63.6036 16.4098 63.0931 15.4686C62.5825 14.5275 61.876 13.7069 61.0212 13.0621Z" fill="#D10028"/>
<path d="M55.705 22.9828C55.5338 22.9829 55.3643 22.9492 55.2062 22.8836C55.0481 22.818 54.9045 22.7218 54.7837 22.6005L52.2172 20.034C52.0942 19.9135 51.9963 19.7697 51.9293 19.6111C51.8622 19.4524 51.8272 19.2821 51.8264 19.1099C51.8255 18.9376 51.8588 18.767 51.9243 18.6077C51.9898 18.4484 52.0863 18.3037 52.208 18.1819C52.3298 18.0601 52.4745 17.9636 52.6338 17.8981C52.7931 17.8326 52.9637 17.7992 53.136 17.8001C53.3082 17.8009 53.4785 17.8358 53.6372 17.9029C53.7958 17.9699 53.9396 18.0678 54.0602 18.1907L55.705 19.8358L58.9694 16.5715C59.0904 16.4504 59.2341 16.3544 59.3923 16.2889C59.5504 16.2234 59.7199 16.1897 59.8911 16.1897C60.0622 16.1897 60.2317 16.2234 60.3899 16.2889C60.548 16.3544 60.6917 16.4504 60.8127 16.5715C60.9338 16.6925 61.0298 16.8362 61.0953 16.9943C61.1608 17.1525 61.1945 17.322 61.1945 17.4931C61.1945 17.6643 61.1608 17.8338 61.0953 17.9919C61.0298 18.1501 60.9338 18.2938 60.8127 18.4148L56.6267 22.6008C56.5058 22.722 56.3621 22.8182 56.2039 22.8837C56.0458 22.9493 55.8762 22.983 55.705 22.9828Z" fill="white"/>
</g>
</svg>
