<svg width="88" height="85" viewBox="0 0 88 85" fill="none" xmlns="http://www.w3.org/2000/svg">
<path d="M80.1406 38.0771L75.5794 38.0665L67.6105 38.0453L57.1228 38.0242L54.0008 38.0136H52.4663H50.064L32.8033 37.9712L26.3794 37.9607L14.8441 37.9289L11.3094 37.9183H7.97577C7.34079 37.9183 6.72698 38.003 6.13434 38.1617C5.52053 38.3205 4.94906 38.5639 4.41991 38.8814C2.36683 40.0772 1.00163 42.2891 1.00163 44.829L0.9593 63.1691L0.927551 77.7736C0.927551 78.8213 1.16038 79.8161 1.57311 80.705C1.74243 81.0648 1.94351 81.4141 2.16575 81.7316C3.41453 83.5412 5.49937 84.7265 7.85935 84.7371H9.17164L12.3359 84.7477L80.0348 84.9064C83.8658 84.917 86.9878 81.8162 86.9983 77.9746L87.0724 45.0195C87.0724 41.199 83.9716 38.0877 80.1406 38.0771ZM6.12376 66.0371C6.12376 66.4287 5.80627 66.7462 5.4147 66.7356C5.21363 66.7356 5.0443 66.6615 4.91731 66.5345C4.79031 66.4075 4.70565 66.2276 4.70565 66.0371L4.72682 56.5866C4.72682 56.195 5.0443 55.8881 5.43587 55.8881C5.62636 55.8881 5.80627 55.9622 5.93327 56.0998C6.06026 56.2268 6.13434 56.4067 6.13434 56.5972L6.12376 66.0371ZM79.8972 81.594L8.99173 81.4247L9.01289 69.5083L9.06581 47.189L9.07639 41.2202L13.8704 41.2308L20.0932 41.2414L22.94 41.252L27.2578 41.2625L35.1633 41.2837L40.9521 41.2943L54.9321 41.326L60.0331 41.3366L73.9602 41.3684H74.1824L79.9713 41.3789L79.8972 81.594Z" fill="url(#paint0_linear)"/>
<path d="M21.7971 76.6696L17.9238 70.3833H17.8814L17.9343 76.6696H15.6802V67.0603H18.3259L22.1781 73.336H22.2204L22.1675 67.0603H24.4217V76.6696H21.7971Z" fill="url(#paint1_linear)"/>
<path d="M30.4224 76.9246C27.8931 76.9246 26.3268 75.3478 26.3268 73.0407V67.0508H28.6339V72.8502C28.6339 73.8768 29.1313 74.8292 30.4436 74.8292C31.7559 74.8292 32.2533 73.8768 32.2533 72.8502V67.0508H34.5709V73.0407C34.5603 75.3478 32.9306 76.9246 30.4224 76.9246Z" fill="url(#paint2_linear)"/>
<path d="M45.1535 76.6702L45.2064 69.8654H45.1641L42.6665 76.6702H41.0368L38.6027 69.8654H38.5604L38.6133 76.6702H36.4226V67.0609H39.7245L41.9151 73.2202H41.9681L44.0635 67.0609H47.4183V76.6702H45.1535Z" fill="url(#paint3_linear)"/>
<path d="M53.2286 76.6702H49.3976V67.0609H53.2286C54.7208 67.0609 56.4987 67.5901 56.4987 69.5267C56.4987 70.585 55.8638 71.2941 54.9219 71.601V71.6327C56.0225 71.8232 56.8903 72.6064 56.8903 73.8763C56.8903 75.9611 55.0595 76.6702 53.2286 76.6702ZM52.7841 68.9023H51.6412V70.8813H52.89C53.7578 70.8813 54.2658 70.5109 54.2658 69.8336C54.2552 69.1881 53.7578 68.9023 52.7841 68.9023ZM52.9323 72.5958H51.6412V74.797H52.9429C53.6731 74.797 54.5727 74.5959 54.5727 73.6541C54.5727 72.8498 53.9165 72.5958 52.9323 72.5958Z" fill="url(#paint4_linear)"/>
<path d="M58.4246 76.6702V67.0609H64.8907V69.0293H60.6681V70.839H64.6579V72.7016H60.6681V74.7018H65.1341V76.6808H58.4246V76.6702Z" fill="url(#paint5_linear)"/>
<path d="M71.8122 76.6702L69.7379 72.8604H68.9548V76.6702H66.6794V67.0609H70.3411C72.1826 67.0609 74.024 67.77 74.024 69.9606C74.024 71.2517 73.262 72.1725 72.0238 72.5534L74.532 76.6702H71.8122ZM70.1718 68.9341H68.9336V71.1777H70.0342C70.7856 71.1777 71.7169 70.9872 71.7169 70.0135C71.7169 69.1034 70.8597 68.9341 70.1718 68.9341Z" fill="url(#paint6_linear)"/>
<path d="M22.771 50.998V63.2318H19.0458V50.998H14.6962V47.8231H27.1311V50.998H22.771Z" fill="url(#paint7_linear)"/>
<path d="M28.8244 63.2317V47.823H39.1851V50.9767H32.412V53.8764H38.8147V56.8608H32.412V60.0568H39.5766V63.2317H28.8244Z" fill="url(#paint8_linear)"/>
<path d="M56.0121 63.2317L56.0968 52.3207H56.0333L52.0223 63.2317H49.4084L45.5139 52.3207H45.4504L45.535 63.2317H42.0321V47.823H47.3235L50.8265 57.7074H50.9111L54.2659 47.823H59.642V63.2423H56.0121V63.2317Z" fill="url(#paint9_linear)"/>
<path d="M68.4043 57.4217H66.5522V63.2317H62.8271V47.823H68.4889C71.8649 47.823 74.5212 49.04 74.5212 52.5747C74.5212 56.1412 71.632 57.4217 68.4043 57.4217ZM68.1926 50.8285H66.5628V54.4585H68.1291C69.526 54.4585 70.8066 54.0457 70.8066 52.5853C70.8066 51.1037 69.5155 50.8285 68.1926 50.8285Z" fill="url(#paint10_linear)"/>
<path d="M73.4521 19.3032C72.7537 24.9651 70.6583 28.9231 68.2454 29.1559C67.3035 29.2512 66.1605 28.7855 65.4409 27.9389C64.5096 26.8383 64.372 25.1132 65.1022 23.4941C65.1022 23.4941 65.1022 23.4941 65.1022 23.4835C65.1022 23.4729 65.1128 23.4729 65.1128 23.4623C65.2081 23.293 65.3033 23.1131 65.3986 22.9332C67.5469 18.8799 69.5894 11.8634 66.1923 0C65.9912 3.25954 65.1657 8.26525 61.4829 11.6624C56.1385 16.594 49.3972 13.9059 41.3754 18.0121C38.0841 19.7054 33.4805 23.1131 29.586 30.7963C29.3426 29.1982 29.1838 26.6478 29.9881 23.7269C31.5227 18.2238 35.4701 15.1971 36.8459 14.234C33.6075 15.8744 29.0463 18.6788 24.8343 23.3565C21.2467 27.3356 18.9502 31.5265 17.3522 35.8126C17.077 36.5534 16.823 37.3047 16.5796 38.0456C16.2515 39.0827 15.9552 40.1304 15.6801 41.1781L21.543 41.1887L24.2205 41.1993L28.2843 41.2098L35.7347 41.231L41.1849 41.2416L54.3606 41.2733L59.1652 41.2839L72.288 41.3157H72.4891C72.7431 40.7442 72.9653 40.215 73.177 39.7177C73.177 39.7071 73.177 39.7071 73.1876 39.6965C73.1876 39.6859 73.1982 39.6753 73.2087 39.6647C73.2193 39.6436 73.2299 39.633 73.2299 39.6118C73.2299 39.6012 73.2405 39.5907 73.2405 39.5801C73.4416 39.1462 73.6321 38.6805 73.8014 38.1937C75.4206 33.6113 75.6534 26.9547 73.4521 19.3032Z" fill="url(#paint11_linear)"/>
<defs>
<linearGradient id="paint0_linear" x1="44" y1="37.9183" x2="44" y2="84.9065" gradientUnits="userSpaceOnUse">
<stop stop-color="#FA8231"/>
<stop offset="1" stop-color="#E7650D"/>
</linearGradient>
<linearGradient id="paint1_linear" x1="20.0509" y1="67.0603" x2="20.0509" y2="76.6696" gradientUnits="userSpaceOnUse">
<stop stop-color="#FA8231"/>
<stop offset="1" stop-color="#E7650D"/>
</linearGradient>
<linearGradient id="paint2_linear" x1="30.4489" y1="67.0508" x2="30.4489" y2="76.9246" gradientUnits="userSpaceOnUse">
<stop stop-color="#FA8231"/>
<stop offset="1" stop-color="#E7650D"/>
</linearGradient>
<linearGradient id="paint3_linear" x1="41.9204" y1="67.0609" x2="41.9204" y2="76.6702" gradientUnits="userSpaceOnUse">
<stop stop-color="#FA8231"/>
<stop offset="1" stop-color="#E7650D"/>
</linearGradient>
<linearGradient id="paint4_linear" x1="53.144" y1="67.0609" x2="53.144" y2="76.6702" gradientUnits="userSpaceOnUse">
<stop stop-color="#FA8231"/>
<stop offset="1" stop-color="#E7650D"/>
</linearGradient>
<linearGradient id="paint5_linear" x1="61.7793" y1="67.0609" x2="61.7793" y2="76.6808" gradientUnits="userSpaceOnUse">
<stop stop-color="#FA8231"/>
<stop offset="1" stop-color="#E7650D"/>
</linearGradient>
<linearGradient id="paint6_linear" x1="70.6057" y1="67.0609" x2="70.6057" y2="76.6702" gradientUnits="userSpaceOnUse">
<stop stop-color="#FA8231"/>
<stop offset="1" stop-color="#E7650D"/>
</linearGradient>
<linearGradient id="paint7_linear" x1="20.9137" y1="47.8231" x2="20.9137" y2="63.2318" gradientUnits="userSpaceOnUse">
<stop stop-color="#FA8231"/>
<stop offset="1" stop-color="#E7650D"/>
</linearGradient>
<linearGradient id="paint8_linear" x1="34.2005" y1="47.823" x2="34.2005" y2="63.2317" gradientUnits="userSpaceOnUse">
<stop stop-color="#FA8231"/>
<stop offset="1" stop-color="#E7650D"/>
</linearGradient>
<linearGradient id="paint9_linear" x1="50.8371" y1="47.823" x2="50.8371" y2="63.2423" gradientUnits="userSpaceOnUse">
<stop stop-color="#FA8231"/>
<stop offset="1" stop-color="#E7650D"/>
</linearGradient>
<linearGradient id="paint10_linear" x1="68.6741" y1="47.823" x2="68.6741" y2="63.2317" gradientUnits="userSpaceOnUse">
<stop stop-color="#FA8231"/>
<stop offset="1" stop-color="#E7650D"/>
</linearGradient>
<linearGradient id="paint11_linear" x1="45.3699" y1="0" x2="45.3699" y2="41.3157" gradientUnits="userSpaceOnUse">
<stop stop-color="#FA8231"/>
<stop offset="1" stop-color="#E7650D"/>
</linearGradient>
</defs>
</svg>
