<svg width="126" height="54" viewBox="0 0 126 54" fill="none" xmlns="http://www.w3.org/2000/svg">
<path fill-rule="evenodd" clip-rule="evenodd" d="M23.9827 36.5811H19.1969L15.6081 22.9328C15.4377 22.305 15.076 21.75 14.544 21.4884C13.2163 20.831 11.7532 20.3078 10.1572 20.044V19.5185H17.8668C18.9309 19.5185 19.7289 20.3078 19.8619 21.2245L21.724 31.0695L26.5075 19.5185H31.1604L23.9827 36.5811ZM33.8205 36.5811H29.3006L33.0225 19.5185H37.5423L33.8205 36.5811ZM43.3899 24.2454C43.5229 23.3264 44.3209 22.8009 45.252 22.8009C46.715 22.669 48.3088 22.9329 49.6388 23.588L50.4369 19.9143C49.1068 19.3889 47.6437 19.125 46.316 19.125C41.9292 19.125 38.737 21.4884 38.737 24.7685C38.737 27.2639 40.9981 28.5741 42.5942 29.3634C44.3209 30.1505 44.986 30.6759 44.853 31.463C44.853 32.6436 43.5229 33.169 42.1952 33.169C40.5991 33.169 39.0031 32.7755 37.5423 32.1181L36.7443 35.794C38.3404 36.4491 40.0671 36.713 41.6632 36.713C46.582 36.8427 49.6388 34.4815 49.6388 30.9375C49.6388 26.4746 43.3899 26.213 43.3899 24.2454ZM65.4572 36.5811L61.8684 19.5185H58.0135C57.2155 19.5185 56.4175 20.044 56.1514 20.831L49.5058 36.5811H54.1587L55.0874 34.088H60.8043L61.3363 36.5811H65.4572ZM58.6785 24.1134L60.0063 30.544H56.2844L58.6785 24.1134Z" fill="#172B85"/>
<path fill-rule="evenodd" clip-rule="evenodd" d="M101.5 38.4752C98.9048 40.7145 95.5388 42.0663 91.8606 42.0663C83.6533 42.0663 77 35.3357 77 27.0331C77 18.7306 83.6533 12 91.8606 12C95.5388 12 98.9048 13.3518 101.5 15.5911C104.095 13.3518 107.461 12 111.139 12C119.346 12 126 18.7306 126 27.0331C126 35.3357 119.346 42.0663 111.139 42.0663C107.461 42.0663 104.095 40.7145 101.5 38.4752Z" fill="#ED0006"/>
<path fill-rule="evenodd" clip-rule="evenodd" d="M101.5 38.4752C104.695 35.7178 106.721 31.6149 106.721 27.0331C106.721 22.4514 104.695 18.3484 101.5 15.5911C104.095 13.3518 107.461 12 111.139 12C119.346 12 125.999 18.7306 125.999 27.0331C125.999 35.3357 119.346 42.0663 111.139 42.0663C107.461 42.0663 104.095 40.7145 101.5 38.4752Z" fill="#F9A000"/>
<path fill-rule="evenodd" clip-rule="evenodd" d="M101.5 38.4748C104.695 35.7175 106.721 31.6147 106.721 27.0331C106.721 22.4516 104.695 18.3488 101.5 15.5914C98.305 18.3488 96.279 22.4516 96.279 27.0331C96.279 31.6147 98.305 35.7175 101.5 38.4748Z" fill="#FF5E00"/>
</svg>
